<svg width="80" height="59" viewBox="0 0 80 59" fill="none" xmlns="http://www.w3.org/2000/svg">
<g clip-path="url(#clip0_82_15453)">
<path fill-rule="evenodd" clip-rule="evenodd" d="M53.879 3.76998C52.441 5.29398 49.816 8.89398 48.046 11.77C46.277 14.647 44.434 17 43.953 17C43.471 17 42.621 15.313 42.064 13.25C40.94 9.08998 38.027 6.69198 35.29 7.67398C32.67 8.61398 24.108 14.87 19.5 19.211C15.06 23.393 13.51 23.671 7.09602 21.437C4.67402 20.594 2.08702 20.136 1.34602 20.421C-0.94898 21.301 -0.136981 23.998 2.75002 25.086C4.26302 25.656 6.80702 26.77 8.40402 27.561C10.001 28.353 12.101 29 13.072 29C14.386 29 15.504 31.007 17.456 36.868C20.921 47.273 24.91 52.328 32.675 56.157C40.106 59.82 44.38 59.508 51.517 54.781C58.8 49.957 60.926 46.514 64.093 34.416C65.665 28.412 66.966 22.6 66.984 21.5C67.004 20.312 69.598 17.268 73.373 14C79.333 8.84198 79.697 8.28198 79.223 4.99998C78.945 3.07498 78.566 1.32298 78.383 1.10698C77.776 0.395977 75 3.21798 75 4.54598C75 6.04998 70.218 12 69.009 12C68.562 12 67.693 10.557 67.078 8.79298C64.386 1.07098 58.53 -1.15802 53.879 3.76998ZM53.984 10.75C51.682 13.362 49.158 16.737 48.374 18.25C47.004 20.894 47.044 21 49.427 21C51.919 21 53.023 20.656 60.641 17.507C64.758 15.805 64.776 15.773 63.812 12.147C62.922 8.80298 60.68 5.99998 58.894 5.99998C58.496 5.99998 56.287 8.13698 53.984 10.75ZM29.327 15.64C20.83 22.048 19.156 25 24.018 25C28.968 25 41 22.635 41 21.662C41 21.06 40.264 18.639 39.364 16.283C37.327 10.949 35.687 10.844 29.327 15.64ZM56.559 23.584C51.682 25.37 31.115 29 25.87 29C22.105 29 22 29.096 22 32.54C22 34.487 22.903 37.849 24.006 40.012C26.485 44.872 31.77 51 33.481 51C34.182 51 35.315 51.675 36 52.5C39.04 56.163 47.305 52.792 54.265 45.05C57.608 41.332 59.358 38.179 60.903 33.095C64.361 21.708 63.977 20.867 56.559 23.584Z" fill="black"/>
</g>
<defs>
<clipPath id="clip0_82_15453">
<rect width="80" height="59" fill="white"/>
</clipPath>
</defs>
</svg>
