<svg width="86" height="266" viewBox="0 0 86 266" fill="none" xmlns="http://www.w3.org/2000/svg">
<g clip-path="url(#clip0_83_15459)">
<path fill-rule="evenodd" clip-rule="evenodd" d="M50.158 1.30977C49.302 2.34077 49.716 4.81877 51.874 11.5838C53.438 16.4878 55.713 24.7748 56.929 29.9998C58.901 38.4678 59.029 40.4628 58.103 48.3638C56.889 58.7218 55.815 60.4768 45.171 69.4998C41.12 72.9338 38.686 75.6328 39.479 75.8098C41.153 76.1848 46.547 73.4998 49.331 70.9058C50.442 69.8708 52.938 68.7268 54.879 68.3628C58.128 67.7528 58.696 68.0368 62.073 71.9578C66.847 77.5008 72.57 95.5188 78.286 123C79.242 127.594 80.131 129.594 81.319 129.823C83.744 130.29 83.518 125.599 80.431 111.354C74.587 84.3868 73.771 76.1988 76.536 72.2518C77.381 71.0458 79.856 69.5238 82.036 68.8708C85.15 67.9378 86 67.1938 86 65.4008C86 62.3428 84.89 61.8378 81.217 63.2238C76.318 65.0728 73.372 63.0998 70.044 55.7408C65.849 46.4658 63 36.4158 63 30.8948C63 28.2028 62.603 25.9998 62.119 25.9998C61.237 25.9998 60.104 23.2218 55.103 8.79976C52.045 -0.0212355 51.698 -0.546233 50.158 1.30977ZM60.724 53.6428C59.856 56.8638 58.836 60.5128 58.457 61.7498C57.966 63.3508 58.176 63.9998 59.187 63.9998C61.201 63.9998 66.437 69.7978 68.552 74.3698L70.342 78.2408L71.861 73.4818C73.353 68.8058 73.337 68.6858 70.94 66.5848C69.591 65.4028 67.432 61.3288 66.112 57.4738C62.595 47.2068 62.478 47.1238 60.724 53.6428ZM22.2 181.2C21.472 181.928 20.986 185.568 20.964 190.45C20.906 203.708 17.175 215.621 12.101 218.757C9.555 220.33 8.055 221.557 3 226.203L0.5 228.5L2.809 228.827C4.079 229.007 6.554 228.636 8.309 228.002C10.064 227.369 12.57 226.64 13.879 226.382C15.187 226.125 16.721 225.821 17.287 225.707C19.06 225.35 20.785 230.182 22.034 239C24.451 256.072 24.849 258.564 25.706 261.994C26.215 264.029 27.294 265.625 28.29 265.817C30.267 266.198 30.225 267.017 29.025 251.514C27.668 233.989 29.929 225.74 36.933 222.65C41.334 220.708 42.731 218.303 40.661 216.232C39.444 215.016 38.822 215.041 36.174 216.41C32.252 218.438 28.579 218.436 26.547 216.405C25.203 215.06 24.975 212.216 25.098 198.327C25.242 182.198 24.657 178.743 22.2 181.2ZM20.411 219.371C20.122 220.125 21.036 222.438 22.443 224.51C23.849 226.583 25.059 228.779 25.132 229.39C25.204 230 25.557 228.925 25.917 227C26.416 224.323 26.091 222.866 24.535 220.805C22.231 217.755 21.173 217.387 20.411 219.371Z" fill="black"/>
</g>
<defs>
<clipPath id="clip0_83_15459">
<rect width="86" height="266" fill="white"/>
</clipPath>
</defs>
</svg>
