<svg width="151" height="148" viewBox="0 0 151 148" fill="none" xmlns="http://www.w3.org/2000/svg">
<g clip-path="url(#clip0_82_15441)">
<path fill-rule="evenodd" clip-rule="evenodd" d="M38.902 1.59794C37.581 2.32994 34.7 2.94694 32.5 2.96794C24.697 3.04494 19.238 8.73095 20.338 15.6349C20.812 18.6119 20.644 18.8009 17.028 19.3789C14.025 19.8599 13.085 20.5269 12.581 22.5319C12.23 23.9309 12.374 25.8459 12.901 26.7869C13.589 28.0169 13.386 29.0209 12.179 30.3539C10.056 32.6999 9.905 37.1489 11.9 38.6419C13.093 39.5359 13.168 40.0929 12.242 41.2079C11.375 42.2529 11.336 43.6339 12.096 46.3849C12.818 49.0009 12.811 50.5229 12.073 51.4119C11.447 52.1669 10.742 61.7389 10.348 74.8439C9.84 91.7349 9.38 96.9999 8.412 96.9999C6.303 96.9999 0 103.59 0 105.795C0 106.929 1.56 109.14 3.471 110.716C6.809 113.467 6.9 113.717 5.82 117.234C4.328 122.097 6.621 126 10.972 126H13.898L12.426 129.523C10.733 133.575 12.008 137.595 14.664 136.575C15.495 136.257 17.875 135.724 19.952 135.392C23.474 134.829 23.778 134.981 24.445 137.638C25.62 142.317 26.782 143 33.573 143C37.834 143 40.162 143.442 40.7 144.354C43.109 148.432 49.032 148.976 53.544 145.534C56.332 143.408 57.472 143.15 61.81 143.664C65.899 144.148 67.494 143.858 70.315 142.114C73.117 140.383 74.299 140.163 76.441 140.978C79.804 142.256 84.815 140.322 87.726 136.621C89.605 134.232 90.418 134 96.894 134C102.667 134 104.375 133.625 106 132C107.1 130.9 108 129.6 108 129.111C108 128.623 109.688 127.917 111.75 127.544C116.515 126.682 122.823 122.597 123.944 119.646C124.52 118.134 126.261 116.943 129.154 116.084C134.583 114.472 135.72 113.551 136.464 110.162C136.859 108.365 138.134 107.003 140.279 106.086C145.73 103.755 147.012 102.095 146.835 97.5969C146.746 95.3429 147.271 92.1039 148 90.3969C149.734 86.3449 148.816 84.2389 144.537 82.4509C141.094 81.0119 141.047 80.9119 141.129 75.1139C141.21 69.3379 141.288 69.1819 145.606 66.1389C150.43 62.7379 151.391 59.1939 148.388 55.8759C146.9 54.2319 146.938 53.7589 148.888 49.7319C152.587 42.0909 151.011 36.9999 144.948 36.9999C142.575 36.9999 141.936 36.4929 141.482 34.2499C139.924 26.5419 139.891 26.5089 133.766 26.3919C128.871 26.2989 127.579 25.8369 124.403 23.0489C121.234 20.2669 120.213 19.9009 117.109 20.4329C115.124 20.7739 110.742 21.4269 107.371 21.8849C104.001 22.3419 100.252 23.4099 99.042 24.2579C97.133 25.5949 96.488 25.6149 94.171 24.4059C90.596 22.5409 89.054 22.6459 85.5 24.9999C83.85 26.0929 81.543 26.9899 80.372 26.9929C79.202 26.9969 77.685 27.6749 77 28.4999C75.107 30.7799 74.302 30.3049 74.761 27.1769C74.989 25.6249 74.459 22.6409 73.584 20.5459C72.047 16.8679 71.856 16.7559 67.996 17.2739C64.73 17.7119 63.999 17.5069 63.994 16.1549C63.99 15.2449 63.29 13.1619 62.438 11.5279C61.037 8.84094 61.038 8.44594 62.444 7.41694C63.3 6.79194 64 5.99194 64 5.63994C64 4.50794 60.507 4.95794 58.473 6.35094C55.968 8.06594 51 9.30094 51 8.20894C51 6.84394 45.129 1.26694 43.146 0.747944C42.133 0.483944 40.223 0.865944 38.902 1.59794ZM39.29 5.10994C38.512 5.88794 38.482 7.08294 39.188 9.10994C40.093 11.7059 40.643 11.9999 44.598 11.9999C49.832 11.9999 50.124 10.8519 45.894 6.90094C42.55 3.77694 41.034 3.36594 39.29 5.10994ZM27.27 7.56394C21.95 9.91094 21.518 16.1059 26.541 18.0149C28.699 18.8359 29.715 18.5569 32.619 16.3419C34.536 14.8789 35.672 13.4149 35.143 13.0879C34.613 12.7609 34.027 11.1489 33.84 9.50494C33.445 6.03094 31.828 5.55394 27.27 7.56394ZM55.81 12.5239C54.744 13.5889 56.223 17.6579 58.103 18.8319C59.701 19.8309 60.153 19.7639 60.654 18.4589C61.902 15.2059 57.959 10.3739 55.81 12.5239ZM38.228 17.0389C36.978 17.5409 35.663 18.7159 35.304 19.6499C34.946 20.5829 33.791 22.2089 32.738 23.2619C27.242 28.7579 25.848 37.8029 28.422 51.2579C30.152 60.3009 36.6 81.0689 38.474 83.6369C39.373 84.8689 42.148 85.8969 46.667 86.6719C53.272 87.8039 53.328 87.8379 48.344 87.6719C45.508 87.5769 43.436 87.9009 43.74 88.3909C44.432 89.5079 60.48 88.4959 73.02 86.5449C88.185 84.1849 104.276 80.1629 107.21 77.9989C108.7 76.8989 110.447 75.9999 111.091 75.9999C114.762 75.9999 127.503 65.7969 130.086 60.7899C132.572 55.9699 132.488 53.5909 129.616 47.4209C127.134 42.0919 122.945 37.9999 119.972 37.9999C117.638 37.9999 116.749 40.5469 118.559 42.0489C120.529 43.6839 120.371 47.3639 118.25 49.2269C115.686 51.4779 112.55 52.1939 108.544 51.4419C105.482 50.8679 105 50.3949 105 47.9609C105 46.0529 105.886 44.4839 107.75 43.0939C112.112 39.8419 113.982 37.7799 113.411 36.8559C112.552 35.4659 102.449 35.8759 94.697 37.6149C87.526 39.2249 76.019 44.0339 72.813 46.7609C70.494 48.7339 69.375 47.7429 68.625 43.0549C68.274 40.8609 66.587 36.6919 64.877 33.7909C61.822 28.6099 55.711 21.9999 53.976 21.9999C53.491 21.9999 53.349 24.1469 53.659 26.7709C54.182 31.1819 54.023 31.6499 51.554 32.9709C48.206 34.7629 42.689 34.8159 40.593 33.0779C37.944 30.8779 38.57 25.4679 41.75 23.0829C46.437 19.5699 47 18.9659 47 17.4609C47 15.7909 41.94 15.5489 38.228 17.0389ZM65.76 22.6619C63.123 24.0459 63.08 24.1929 64.625 26.5499C66.394 29.2509 67.235 29.4799 69.982 28.0099C71.407 27.2469 71.667 26.3999 71.112 24.3249C70.241 21.0679 69.334 20.7869 65.76 22.6619ZM16 24.5249C16 26.0959 18.829 27.5549 23.045 28.1569C25.792 28.5489 27.146 25.3409 24.848 23.8849C22.441 22.3589 16 22.8249 16 24.5249ZM113.367 24.4229C112.194 25.2619 111.035 27.3109 110.79 28.9749C110.36 31.9069 110.468 31.9999 114.306 31.9999C116.902 31.9999 118.822 31.3649 119.883 30.1569C120.772 29.1429 122.078 28.1249 122.785 27.8949C123.831 27.5549 123.831 27.1569 122.785 25.7519C120.94 23.2749 115.953 22.5709 113.367 24.4229ZM42.958 26.5499C41.896 27.8299 41.957 28.3859 43.306 29.7349C44.723 31.1509 45.279 31.1889 47.47 30.0159C48.862 29.2709 50 28.0629 50 27.3309C50 25.6759 48.781 25.6189 47.2 27.1999C46.267 28.1329 46 28.0219 46 26.6999C46 24.5799 44.649 24.5129 42.958 26.5499ZM86.75 27.6609C85.237 28.4569 83.994 29.6469 83.986 30.3049C83.979 30.9619 83.703 32.5069 83.373 33.7369C82.819 35.8059 82.99 35.9069 85.637 35.0699C87.211 34.5729 89.737 33.8949 91.25 33.5639C93.27 33.1219 94 32.3569 94 30.6809C94 28.2349 92.264 25.9329 90.55 26.1059C89.972 26.1639 88.263 26.8639 86.75 27.6609ZM100.2 27.1999C99.54 27.8599 99 29.2099 99 30.1999C99 31.5679 99.788 31.9999 102.287 31.9999C105.222 31.9999 105.599 31.6789 105.803 28.9999C105.996 26.4639 105.673 25.9999 103.716 25.9999C102.442 25.9999 100.86 26.5399 100.2 27.1999ZM127.346 32.6839C125.694 36.1639 125.698 36.1849 128.594 38.5519C132.278 41.5639 132.921 41.5559 136.26 38.4599C140.952 34.1089 139.737 30.5919 133.252 29.7449C129.177 29.2129 128.936 29.3329 127.346 32.6839ZM14.323 33.6009C13.534 35.6559 15.634 36.9649 19.75 36.9849C23.708 37.0029 24.108 34.8259 20.453 33.1609C16.959 31.5689 15.05 31.7059 14.323 33.6009ZM69.5 32.9999C69.84 33.5499 70.316 33.9999 70.559 33.9999C70.802 33.9999 71 33.5499 71 32.9999C71 32.4499 70.523 31.9999 69.941 31.9999C69.359 31.9999 69.16 32.4499 69.5 32.9999ZM75.169 34.2959C74.277 35.3709 73.869 39.9999 74.666 39.9999C74.798 39.9999 76.017 39.4939 77.375 38.8749C79.531 37.8929 79.706 37.4489 78.761 35.3749C77.534 32.6809 76.714 32.4349 75.169 34.2959ZM138.255 43.8319C135.956 46.6929 135.336 48.3079 135.735 50.3949C136.41 53.9229 138.065 54.5349 141.761 52.6229C145.143 50.8749 148 46.9689 148 44.0939C148 41.8769 147.595 41.5379 143.902 40.6569C141.739 40.1419 140.794 40.6729 138.255 43.8319ZM15.323 43.6009C14.575 45.5489 16.588 46.9639 20.133 46.9849C22.62 46.9989 24.694 44.0279 23.225 42.5579C21.931 41.2639 15.915 42.0589 15.323 43.6009ZM43.5 46.1949C40.555 47.8649 40.035 49.0219 39.993 53.9999C39.969 56.9009 39.261 59.3879 38 60.9999C36.924 62.3749 36.034 64.9539 36.022 66.7309C36.004 69.3399 36.475 70.0809 38.464 70.5799C40.955 71.2049 48.475 68.2339 48.16 66.7499C48.072 66.3379 47.993 64.7629 47.984 63.2499C47.975 61.6499 46.744 59.1119 45.042 57.1809C41.442 53.0969 42.118 50.1439 47.033 48.4889C48.873 47.8689 50.556 46.8309 50.773 46.1809C51.28 44.6589 46.192 44.6679 43.5 46.1949ZM109.5 46.9999C109.84 47.5499 110.991 47.9999 112.059 47.9999C113.127 47.9999 114 47.5499 114 46.9999C114 46.4499 112.848 45.9999 111.441 45.9999C109.99 45.9999 109.149 46.4329 109.5 46.9999ZM15.011 53.4869C12.805 56.1449 14.569 57.9999 19.302 57.9999C24.469 57.9999 24.86 57.7209 24.24 54.4759C23.836 52.3639 23.214 51.9999 20.006 51.9999C17.897 51.9999 15.703 52.6529 15.011 53.4869ZM88.43 56.8939C85.926 58.0299 82.997 60.6179 80.817 63.6199C75.263 71.2689 74.741 72.5979 76.573 74.4309C78.722 76.5789 84.3 76.4309 86.345 74.1709C88.395 71.9059 88.414 70.7009 86.461 66.9249C85.074 64.2419 85.076 63.7299 86.48 61.7249C87.336 60.5009 89.372 59.0499 91.004 58.4999C93.836 57.5449 95.078 55.8329 93.325 55.2979C92.871 55.1599 90.669 55.8779 88.43 56.8939ZM137.225 58.6709C135.819 59.2359 132.682 66.0159 133.465 66.7979C134.086 67.4189 142.074 64.3979 144.499 62.6239C147.288 60.5849 145.733 57.9839 141.781 58.0789C139.977 58.1219 137.926 58.3889 137.225 58.6709ZM14.6 63.5999C14.244 64.5269 14.178 65.5109 14.453 65.7859C14.728 66.0609 15.244 65.5269 15.6 64.5999C15.956 63.6729 16.022 62.6889 15.747 62.4139C15.472 62.1389 14.956 62.6729 14.6 63.5999ZM41.571 63.5709C39.486 65.6569 40.523 67.3259 43.061 65.9679C44.127 65.3969 45 64.5219 45 64.0239C45 62.2519 43.137 62.0059 41.571 63.5709ZM20.048 65.6129C15.987 69.0299 17.42 71.2389 23.414 70.7999C27.302 70.5149 27.484 70.3549 27.175 67.5129C26.879 64.7949 25.584 63.0549 23.827 63.0149C23.456 63.0069 21.756 64.1759 20.048 65.6129ZM79.667 69.6669C78.149 71.1849 79.147 72.9999 81.5 72.9999C84.23 72.9999 84.664 72.0639 82.8 70.1999C81.441 68.8409 80.631 68.7029 79.667 69.6669ZM136.667 70.6669C136.3 71.0329 136 72.5079 136 73.9439C136 79.4699 129.943 83.9999 122.555 83.9999C119.945 83.9999 118.639 84.6209 117.457 86.4249C115.451 89.4869 111.157 90.9999 104.472 90.9999C99.575 90.9999 99.162 91.196 97.968 94.077C96.176 98.405 93.008 100.207 88.172 99.6509C85.967 99.3979 83.354 98.7379 82.366 98.1849C81.043 97.4439 79.581 97.6829 76.824 99.0899C72.693 101.197 68.849 101.525 66.019 100.01C64.567 99.2329 63.041 99.7799 58.911 102.56C52.599 106.808 49.402 106.792 46.897 102.5C45.934 100.85 45.113 98.7129 45.073 97.7499C44.983 95.5869 43.96 95.535 41.441 97.563C40.064 98.671 39.863 99.277 40.75 99.646C41.438 99.932 42.015 101.592 42.033 103.333C42.07 106.871 46.075 113.251 50.163 116.284C52.094 117.717 53.593 118.068 55.614 117.561C59.212 116.658 67 108.88 67 106.191C67 101.747 71.221 102.836 74.215 108.052C75.106 109.605 77.655 111.804 79.879 112.938L83.922 115.001L89.42 112.944C95.941 110.504 99.754 106.39 100.642 100.837C101.458 95.7319 103.158 95.1199 107.443 98.3889C111.546 101.518 115.692 101.726 120.79 99.0579C125.731 96.4719 131.589 90.8929 132.497 87.9089C132.9 86.5839 134.02 84.5999 134.986 83.4999C135.953 82.3999 136.982 79.6999 137.273 77.4999C137.564 75.2999 138.12 72.7129 138.508 71.7499C139.197 70.0419 137.997 69.3369 136.667 70.6669ZM121.629 75.1219C119.036 76.8399 117.081 78.7519 117.285 79.3719C118.416 82.8229 131.26 79.9079 132.528 75.9119C134.072 71.0459 128.404 70.6349 121.629 75.1219ZM13.622 75.3799C13.331 76.5459 13.554 79.2999 14.119 81.4999C14.683 83.6999 15.573 87.9749 16.096 90.9999C17.273 97.8129 19.586 99.9999 25.611 99.9999C28.025 99.9999 30 99.5499 30 98.9999C30 98.4499 29.126 97.9999 28.057 97.9999C24.596 97.9999 21.187 90.7709 24.177 89.7739C26.122 89.1259 24.189 87.2009 20.86 86.4689C17.768 85.7899 17.747 85.7419 18.275 80.6209C18.759 75.9359 18.592 75.3549 16.48 74.3589C14.467 73.4079 14.08 73.5469 13.622 75.3799ZM25.315 77.007C24.114 77.491 22.646 78.7939 22.053 79.9019C20.271 83.2299 25.093 85.0559 30.367 83.0509C32.675 82.1729 32.777 81.8699 31.713 79.0509C30.531 75.9189 29.128 75.471 25.315 77.007ZM104.75 84.1619C101.477 85.3579 101.223 86.6189 104.074 87.5229C106.664 88.3459 112 86.2279 112 84.3789C112 82.7879 108.777 82.6909 104.75 84.1619ZM137.654 90.7499C136.88 93.3619 136.374 95.6449 136.529 95.8219C136.684 95.9989 138.654 94.9809 140.906 93.5599C143.908 91.6639 145 90.3119 145 88.4869C145 86.3959 144.527 85.9999 142.03 85.9999C139.352 85.9999 138.923 86.4649 137.654 90.7499ZM87.06 88.3949C82.908 89.8949 82.211 91.4699 84.552 94.0579C86.958 96.7159 90.597 96.494 93.584 93.507C95.628 91.463 95.884 90.651 95.004 89.007C93.79 86.739 92.021 86.6029 87.06 88.3949ZM28.59 90.1659C26.782 92.2769 26.783 92.3679 28.617 93.7099C29.653 94.4679 31.85 94.9559 33.5 94.7939C35.955 94.5529 36.5 94.0459 36.5 91.9999C36.5 90.0029 36.047 89.5479 34.25 89.7379C33.013 89.8689 32 89.5319 32 88.9879C32 87.3649 30.564 87.8609 28.59 90.1659ZM69.69 91.7219C67.472 92.0549 66.945 92.6029 67.19 94.3219C67.63 97.4119 71.434 97.6419 75.566 94.8289C79.237 92.3299 79.908 90.9999 77.5 90.9999C76.675 90.9999 76 91.5399 76 92.1999C76 93.1329 75.733 93.1329 74.8 92.1999C74.14 91.5399 73.352 91.0669 73.05 91.1499C72.748 91.2319 71.235 91.4899 69.69 91.7219ZM49.39 97.1999C49.742 98.9599 50.576 100.738 51.242 101.15C52.879 102.161 60.394 97.9109 60.812 95.7369C61.101 94.2389 60.295 93.9999 54.948 93.9999H48.75L49.39 97.1999ZM108 94.9409C108 95.4589 108.45 96.1599 109 96.4999C109.55 96.8399 110 96.4159 110 95.5589C110 94.7019 109.55 93.9999 109 93.9999C108.45 93.9999 108 94.4229 108 94.9409ZM129 100.059C129 100.641 129.45 100.84 130 100.5C130.55 100.16 131 99.6839 131 99.4409C131 99.1979 130.55 98.9999 130 98.9999C129.45 98.9999 129 99.4769 129 100.059ZM135.252 100.793C134.978 101.504 135.042 102.376 135.396 102.729C136.311 103.644 141.258 101.738 141.74 100.285C142.3 98.599 135.906 99.0999 135.252 100.793ZM34.568 101.785C34.085 103.308 32.687 103.852 27.996 104.343C24.72 104.685 20.962 104.556 19.645 104.055L17.252 103.145L19.178 107.132C21.337 111.601 26.224 118.251 31.312 123.644L34.703 127.238L35.253 113.869C35.555 106.516 35.663 100.354 35.493 100.175C35.322 99.9959 34.906 100.72 34.568 101.785ZM5.667 102.667C3.282 105.051 7.887 110.015 12.439 109.968C15.237 109.939 15.346 109.819 13.704 108.574C12.715 107.825 10.958 107.46 9.797 107.763C8.166 108.19 7.886 107.996 8.565 106.908C10.242 104.217 10.059 102 8.16 102C7.156 102 6.033 102.3 5.667 102.667ZM119.5 103.689C115.757 105.052 111.711 104.954 105.25 103.344C103.245 102.844 103 103.157 103 106.217C103 110.351 100.465 113.022 93.7 116.014C86.717 119.104 82.401 118.836 75.952 114.915C72.953 113.092 70.224 111.2 69.886 110.712C69.549 110.223 68.333 111.342 67.186 113.2C64.735 117.166 58.426 121.002 54.364 120.996C50.362 120.991 45.555 117.796 42.418 113.055C40.954 110.843 39.297 109.316 38.737 109.663C38.087 110.064 37.945 113.77 38.346 119.896C39.093 131.294 39.689 132.008 48.441 131.982C59.761 131.947 74.909 128.404 95.751 120.914C102.133 118.621 115 111.973 115 110.969C115 110.569 116.297 109.705 117.883 109.049C121.291 107.637 127.086 101.942 124.937 102.117C124.147 102.181 121.7 102.888 119.5 103.689ZM126.788 109.275C123.138 110.734 122.334 113 125.466 113C129.083 113 133.217 111.151 132.748 109.744C132.203 108.105 130.124 107.941 126.788 109.275ZM10.2 117.2C9.54 117.86 9 119.269 9 120.332C9 121.991 9.528 122.189 12.75 121.733C14.813 121.441 17.786 120.699 19.359 120.085C21.735 119.155 22.01 118.717 20.986 117.483C19.494 115.686 11.914 115.486 10.2 117.2ZM111.25 119.066C106.185 121.44 105.906 122.531 110.149 123.38C113.779 124.106 119.293 121.435 119.82 118.696C120.268 116.372 116.664 116.527 111.25 119.066ZM95.58 125.336C89.863 127.061 90.019 128.677 95.98 129.497C102.085 130.337 104.631 128.983 102.715 125.915C101.356 123.739 100.976 123.708 95.58 125.336ZM18.325 127.323C15.24 129.741 15.193 132.45 18.25 131.63C19.487 131.299 21.203 131.021 22.061 131.014C24.073 130.996 28.215 127.157 27.49 125.983C26.584 124.518 20.83 125.359 18.325 127.323ZM79.06 130.395C74.944 131.882 74.126 133.623 76.646 135.532C79.478 137.677 82.589 137.277 84.385 134.535C87.787 129.343 85.942 127.909 79.06 130.395ZM29.48 132.25C29.229 132.938 28.906 134.625 28.762 136C28.536 138.152 28.949 138.543 31.728 138.812C33.504 138.983 35.754 138.659 36.728 138.092C37.83 137.451 38 137.049 37.179 137.03C35.857 137 32.897 134.546 32.964 133.536C33.102 131.476 32.821 131 31.469 131C30.626 131 29.732 131.563 29.48 132.25ZM61.25 135.031C58.72 136.048 58.443 137.043 60.2 138.8C62.976 141.576 70.604 138.739 69.326 135.406C68.724 133.837 64.686 133.65 61.25 135.031ZM46.25 137.031C43.665 138.07 43.399 139.796 45.403 142.536C46.568 144.129 47.288 144.286 49.653 143.459C51.872 142.684 52.569 141.751 52.813 139.232C53.086 136.416 52.829 136.008 50.813 136.063C49.541 136.098 47.487 136.534 46.25 137.031Z" fill="black"/>
</g>
<defs>
<clipPath id="clip0_82_15441">
<rect width="151" height="148" fill="white"/>
</clipPath>
</defs>
</svg>
