<svg width="159" height="128" viewBox="0 0 159 128" fill="none" xmlns="http://www.w3.org/2000/svg">
<g clip-path="url(#clip0_83_15457)">
<path fill-rule="evenodd" clip-rule="evenodd" d="M136 2.30707C130.187 4.26507 124.109 5.43508 116.773 6.01108C110.873 6.47508 105.664 7.09007 105.198 7.37807C104.731 7.66607 95.608 9.28008 84.925 10.9641C39.622 18.1041 2.79501 26.0961 0.875011 29.2021C0.471011 29.8571 0.500012 31.0911 0.942012 31.9461C1.38301 32.8011 1.99001 39.5751 2.29201 47.0001C2.59401 54.4251 3.76301 65.6751 4.89001 72.0001C6.01701 78.3251 7.42801 88.9001 8.02701 95.5001C9.66001 113.496 11.739 126.218 13.2 127.15C13.915 127.606 15.175 127.723 16 127.41C18.321 126.529 54.906 119.74 64 118.503C71.387 117.498 119.207 105.828 142.188 99.4221C146.967 98.0901 151.997 97.0001 153.367 97.0001C158.403 97.0001 159.286 94.7061 158.536 83.5711C158.163 78.0321 157.695 69.6751 157.496 65.0001C157.298 60.3251 156.205 48.5161 155.068 38.7581C153.931 29.0001 153.097 16.8501 153.214 11.7581C153.436 2.11407 152.731 -0.851927 150.632 0.891073C147.787 3.25107 148.803 24.4281 153.016 50.6151C153.557 53.9791 154.038 60.7291 154.084 65.6151C154.131 70.5021 154.468 76.9751 154.834 80.0001C155.737 87.4591 155.223 90.8101 152.992 92.0041C147.115 95.1491 70.911 113.973 60 114.975C54.775 115.455 48.25 116.332 45.5 116.924C33.941 119.413 19.975 122 18.093 122C14.253 122 13.43 118.166 10.478 86.5001C9.70801 78.2501 8.40301 68.3501 7.57601 64.5001C6.25601 58.3511 5.34601 38.0001 6.39101 38.0001C7.44001 38.0001 35.721 55.6721 44.621 61.8881C52.563 67.4351 54.866 69.5781 55.318 71.8391C56.036 75.4281 60.287 80.5801 64.203 82.6051C65.834 83.4481 70.539 85.2391 74.659 86.5841L82.151 89.0291L85.325 86.7931C92.935 81.4341 96.031 77.7081 97.561 72.0661C99.4 65.2871 101.758 60.4001 104.76 57.1401C106.003 55.7911 106.825 54.4911 106.586 54.2531C106.156 53.8231 110.638 47.2291 123.709 29.0601C127.444 23.8671 134.213 15.8861 138.75 11.3241C143.287 6.76108 147 2.62708 147 2.13708C147 -0.435925 144.009 -0.388927 136 2.30707ZM131 7.92908C130.175 8.40608 120.05 9.98708 108.5 11.4431C96.95 12.8981 86.825 14.2761 86 14.5061C85.175 14.7351 77.975 15.8501 70 16.9841C62.025 18.1181 50.775 20.1371 45 21.4711C39.225 22.8041 32.475 24.1901 30 24.5501C24.874 25.2971 11.374 28.4451 8.75001 29.5061C6.51801 30.4091 6.51801 32.2621 8.75001 34.2441C9.71301 35.0981 16.8 39.4941 24.5 44.0131C40.044 53.1351 51.32 60.3541 54.781 63.4001C56.728 65.1131 58.237 65.3671 65.08 65.1341C71.586 64.9121 73.726 65.2311 76.425 66.8231L79.752 68.7861L81.919 64.9301C86.005 57.6601 93.009 53.4541 96.912 55.9251C97.797 56.4851 98.73 56.3861 99.412 55.6591C102.195 52.6941 112.225 39.6291 117.961 31.5001C121.454 26.5501 126.941 19.2731 130.156 15.3291C133.37 11.3841 136 7.89707 136 7.57907C136 6.71007 132.709 6.94008 131 7.92908ZM113 46.0591C113 46.6411 113.45 46.8401 114 46.5001C114.55 46.1601 115 45.6841 115 45.4411C115 45.1981 114.55 45.0001 114 45.0001C113.45 45.0001 113 45.4771 113 46.0591ZM103.459 56.0671C103.096 56.6531 103.014 57.3481 103.276 57.6101C103.538 57.8721 104.019 57.3921 104.345 56.5431C105.021 54.7811 104.445 54.4711 103.459 56.0671Z" fill="black"/>
</g>
<defs>
<clipPath id="clip0_83_15457">
<rect width="159" height="128" fill="white"/>
</clipPath>
</defs>
</svg>
