<svg width="116" height="105" viewBox="0 0 116 105" fill="none" xmlns="http://www.w3.org/2000/svg">
<g clip-path="url(#clip0_83_15455)">
<path fill-rule="evenodd" clip-rule="evenodd" d="M16.655 1.42811C14.541 2.19911 11.7 3.87311 10.343 5.14811C5.17401 10.0031 4.01201 13.2531 2.59301 26.8131C1.84501 33.9631 0.948009 40.2751 0.600009 40.8381C0.252009 41.4011 0.425008 42.1441 0.984008 42.4901C1.54301 42.8351 2.00501 44.3291 2.01201 45.8091C2.02701 49.1791 5.36601 62.9321 6.80401 65.5481C7.39501 66.6221 8.99301 69.9751 10.356 73.0001C12.975 78.8131 19.644 87.0101 21.75 87.0041C23.757 86.9981 23.212 85.4391 20 82.0001C16.44 78.1891 16.294 77.4291 19.123 77.4291C21.289 77.4291 22.952 79.5781 28.456 89.5001C29.982 92.2501 32.079 95.6941 33.115 97.1541C34.152 98.6141 35 100.725 35 101.845C35 105.117 36.413 105.148 42.124 101.999C45.081 100.37 48.175 99.0201 49 98.9991C49.825 98.9791 53.575 97.4041 57.334 95.5001C63.276 92.4881 65.7 90.8841 71.708 85.9851C72.372 85.4431 73.127 85.0001 73.384 85.0001C73.642 85.0001 77.374 82.6871 81.677 79.8591C98.201 69.0011 105.804 60.6201 111.623 46.8441C114.583 39.8361 115.142 37.3441 115.113 31.2761C115.074 23.1281 113.878 20.1171 108.652 15.0081C104.369 10.8201 100.156 9.17711 93.441 9.07611C89.344 9.01411 87.253 9.67611 82.441 12.5571C75.886 16.4811 66.107 25.6451 59.826 33.7501C57.588 36.6381 55.46 39.0001 55.096 39.0001C54.733 39.0001 54.341 37.8471 54.224 36.4371C53.922 32.7851 49.491 17.8431 47.689 14.4011C42.505 4.49611 26.543 -2.17589 16.655 1.42811ZM21.5 4.68111C15.492 6.03011 12.716 7.50611 10.35 10.6081C8.90401 12.5041 7.96501 14.2991 8.26401 14.5971C8.56201 14.8951 10.537 14.2701 12.653 13.2081C14.769 12.1451 19.538 10.2771 23.25 9.05611C26.962 7.83611 30 6.47211 30 6.02511C30 4.29911 26.011 3.66811 21.5 4.68111ZM33.816 10.5041C33.189 11.8821 32.861 13.1211 33.088 13.2581C33.314 13.3951 34.944 14.5181 36.71 15.7531C38.475 16.9891 40.541 18.0001 41.3 18.0001C42.159 18.0001 43.147 20.0811 43.912 23.4971C45.008 28.3961 45.344 28.8861 47.002 27.9991C48.502 27.1961 48.7 26.4411 48.027 24.0941C46.686 19.4181 42.041 12.1661 39.001 10.0011C35.433 7.46011 35.193 7.48311 33.816 10.5041ZM17.5 15.1841C11.173 18.4991 8.70201 20.8251 7.35901 24.7311C5.51501 30.0971 6.63801 30.5101 11.322 26.1871C25.377 13.2171 25.536 13.0461 23.5 13.0671C22.4 13.0791 19.7 14.0311 17.5 15.1841ZM29 14.7871C28.175 15.0721 26.6 16.2481 25.5 17.4021C24.4 18.5561 21.567 21.0171 19.204 22.8711C16.841 24.7241 15.106 26.4391 15.347 26.6811C16.173 27.5061 34 18.5481 34 17.3071C34 15.6881 30.908 14.1301 29 14.7871ZM92.314 16.2271C87.319 19.9821 87.294 20.2401 92 19.4611C94.475 19.0521 97.963 18.7671 99.75 18.8281C103.525 18.9571 103.974 17.8051 100.75 16.2601C96.335 14.1441 95.091 14.1391 92.314 16.2271ZM77.5 21.1601C74.77 22.6611 68.076 29.0711 66.805 31.4011C65.841 33.1681 65.969 33.1561 68.634 31.2321C71.541 29.1331 80.799 19.9751 79.958 20.0301C79.706 20.0471 78.6 20.5561 77.5 21.1601ZM107 21.7031C107 24.5211 104.022 26.9241 90 35.4271C78.342 42.4971 55.676 59.0091 56.5 59.8331C56.702 60.0351 64.435 55.9171 73.684 50.6811C92.151 40.2271 100.347 37.0361 104.766 38.5811C106.709 39.2601 107.592 40.3361 107.82 42.3021C108.279 46.2741 104.21 49.6481 91.327 55.9811C66.404 68.2311 63.086 69.9551 56.281 74.1901C45.035 81.1891 38.073 88.0001 42.167 88.0001C44.001 88.0001 42.514 89.0161 39.959 89.5081C36.57 90.1611 35.645 91.4681 36.906 93.8251C39.076 97.8791 41.303 97.3501 55.651 89.3721C73.294 79.5631 74.335 79.0141 75.305 79.0061C77.039 78.9931 87.886 70.8421 95.239 64.0261C101.48 58.2411 103.681 55.3731 106.603 49.2141C111.14 39.6551 112.259 31.0701 109.39 27.8381C108.028 26.3031 107.849 25.5861 108.75 25.2711C110.451 24.6761 110.324 22.5141 108.5 21.0001C107.254 19.9661 107 20.0851 107 21.7031ZM84.5 22.8901C80.44 24.7641 74.736 30.0001 76.754 30.0001C77.361 30.0001 78.452 29.4361 79.179 28.7471C79.905 28.0581 83.088 26.2041 86.25 24.6281C89.412 23.0511 92 21.5901 92 21.3811C92 20.4321 88.145 21.2081 84.5 22.8901ZM26.5 25.8011C18.371 30.1541 8.47101 36.4291 7.65901 37.7431C6.79301 39.1431 8.08601 43.0001 9.42001 43.0001C10.073 43.0001 12.134 41.4251 14 39.5001C17.033 36.3711 28.089 29.0231 29.822 28.9851C30.195 28.9771 32.3 27.4191 34.5 25.5231C38.307 22.2411 38.379 22.0751 36 22.0641C34.625 22.0581 30.35 23.7391 26.5 25.8011ZM97.5 24.0131C91.085 25.4711 81.363 30.9281 66.782 41.2581C58.718 46.9711 56.961 48.6891 56.462 51.3501C56.074 53.4201 54.733 55.3301 52.68 56.7371C50.931 57.9371 47.856 60.3991 45.847 62.2091C43.838 64.0191 41.011 66.3191 39.565 67.3211C36.093 69.7261 32 76.3161 32 79.5021C32 81.2331 32.786 82.4011 34.468 83.1681C36.671 84.1711 37.542 83.8191 42.559 79.8961C52.785 71.9011 56.382 69.7151 69 63.8231C94.147 52.0811 104 46.3371 104 43.4181C104 39.0821 96.067 41.1951 81 49.5451C74.675 53.0491 66.35 57.9581 62.5 60.4521C55.358 65.0791 52.315 65.9151 50.224 63.8241C49.322 62.9221 48.517 63.0931 46.774 64.5581C45.441 65.6781 45.706 65.1401 47.414 63.2581C49.017 61.4931 53.015 58.1251 56.299 55.7741C59.583 53.4231 65.182 49.1451 68.741 46.2671C72.3 43.3891 79.805 38.2991 85.417 34.9561C96.123 28.5781 101.841 24.4681 101 23.7561C100.725 23.5231 99.15 23.6391 97.5 24.0131ZM36.452 27.1111C25.991 32.6041 14 41.1761 14 43.1611C14 43.5941 16.212 42.6441 18.915 41.0501C21.619 39.4561 27.919 36.2521 32.915 33.9311C41.749 29.8261 42.818 28.8361 41.187 26.2681C40.591 25.3301 39.458 25.5321 36.452 27.1111ZM32.5 37.5991C21.412 43.2331 10 50.1031 10 51.1451C10 52.5301 12.523 57.1951 16.249 62.6981L19.5 67.5001L19.83 64.0251C20.259 59.5141 25.433 52.5281 33.284 45.8591C41.505 38.8781 42.543 37.7711 42.52 36.0141C42.486 33.4761 39.766 33.9071 32.5 37.5991ZM47.708 36.3191C47.051 38.0311 47.994 42.8781 49.119 43.5741C49.604 43.8731 50 42.3181 50 40.1181C50 36.1081 48.648 33.8681 47.708 36.3191ZM40.894 42.6191C30.551 50.9421 24 58.6331 24 62.4501C24 65.1531 26.016 64.1641 33.272 57.9031C37.159 54.5501 41.869 51.0761 43.74 50.1841C46.902 48.6761 47.095 48.3151 46.492 45.0311C45.557 39.9321 44.694 39.5601 40.894 42.6191ZM39.949 58.1421C36.402 60.4201 31.7 63.7151 29.5 65.4651C27.3 67.2151 24.712 68.9371 23.75 69.2921C21.484 70.1271 21.535 71.5351 23.917 73.9171C24.971 74.9711 25.635 76.0321 25.393 76.2741C25.15 76.5171 25.632 77.2801 26.464 77.9701C27.711 79.0051 28.098 78.8991 28.668 77.3631C30.324 72.9041 34.731 67.6341 41.125 62.4681C44.906 59.4131 48 56.2581 48 55.4571C48 53.2791 47.003 53.6111 39.949 58.1421ZM11 66.5501C11 68.7221 13.852 74.0001 15.026 74.0001C16.564 74.0001 16.174 72.0171 13.918 68.3681C11.609 64.6321 11 64.2521 11 66.5501ZM40.872 68.7501C39.629 70.3361 39.664 70.3711 41.25 69.1281C42.916 67.8211 43.445 67.0001 42.622 67.0001C42.415 67.0001 41.627 67.7871 40.872 68.7501ZM35.667 73.6671C35.3 74.0331 35 75.3831 35 76.6671C35 79.0281 37.319 79.9111 38.5 78.0001C38.84 77.4501 38.611 77.0001 37.992 77.0001C37.32 77.0001 37.122 76.1921 37.5 75.0001C38.112 73.0711 37.041 72.2921 35.667 73.6671ZM33 86.8821C33 87.4321 33.45 88.1601 34 88.5001C34.55 88.8401 35 88.6681 35 88.1181C35 87.5681 34.55 86.8401 34 86.5001C33.45 86.1601 33 86.3321 33 86.8821Z" fill="black"/>
</g>
<defs>
<clipPath id="clip0_83_15455">
<rect width="116" height="105" fill="white"/>
</clipPath>
</defs>
</svg>
