<svg width="180" height="180" viewBox="0 0 180 180" fill="none" xmlns="http://www.w3.org/2000/svg">
<path fill-rule="evenodd" clip-rule="evenodd" d="M122.274 11.5614C119.985 12.9442 119.479 13.7338 117.232 19.415C114.206 27.0684 112.173 38.3925 112.149 47.7358C112.14 51.2656 111.864 56.7948 111.536 60.0231C111.208 63.2514 110.77 68.3475 110.561 71.3485C110.352 74.3488 109.974 77.5462 109.721 78.4538C109.309 79.9373 109.131 79.6827 107.953 75.9206C107.233 73.6203 106.2 69.4498 105.658 66.6527C103.104 53.4781 101.976 48.5791 99.4509 39.6913C95.389 25.394 91.9794 17.0375 89.126 14.3844C86.6769 12.1076 82.6458 11.9056 79.2628 13.8907C75.2959 16.2176 74.0991 18.6408 72.8073 26.9584C72.0148 32.0632 73.5091 45.3218 76.273 57.7061C76.9365 60.6799 77.2982 63.1025 77.0772 63.0908C76.8563 63.0784 75.9811 62.6713 75.1324 62.1856C74.2837 61.7 72.3722 61.2928 70.8847 61.2805C68.5077 61.2613 67.859 61.5801 65.5235 63.9187C63.6743 65.7698 62.6435 67.4634 62.1343 69.4899C61.7313 71.0914 61.1196 72.5755 60.7752 72.7887C60.4308 73.0018 58.9704 71.8551 57.5298 70.2394C55.3177 67.7581 54.4851 67.2539 52.1625 66.9919C48.9893 66.6342 47.1858 67.438 43.0825 71.0395C40.4859 73.3188 40.3371 73.6314 40.0674 77.3621C39.6903 82.578 40.934 92.3915 42.8412 99.2571C43.6911 102.315 44.9181 108.154 45.5681 112.232C48.5042 130.642 51.5613 142.439 55.6442 151.113C59.6518 159.627 63.3613 162.735 73.8979 166.408C82.8193 169.517 85.3412 170.002 92.5991 170C104.273 169.996 114.736 167.388 122.705 162.495C126.807 159.976 132.469 152.894 135.527 146.457C137.421 142.471 139.959 130.929 139.997 126.134C140.092 114.09 137.581 92.727 135.645 89.1094C134.705 87.351 135.122 65.7624 136.208 60.0231C138.364 48.6187 139.125 24.3708 137.511 18.4715C136.293 14.0223 131.001 9.9383 126.536 10.0007C125.591 10.0137 123.674 10.7162 122.274 11.5614ZM124.229 16.1255C122.505 18.031 119.679 27.2933 118.706 34.2214C118.217 37.7079 117.64 44.5921 117.426 49.5195C116.468 71.4974 115.5 84.6843 114.689 86.7856C114.319 87.7421 114.017 88.6151 114.017 88.7251C114.017 88.8357 117.473 88.887 121.697 88.8394L129.377 88.7535L129.645 77.0142C129.793 70.5576 130.229 63.6067 130.614 61.5678C133.239 47.6876 134.052 26.8305 132.211 20.6242C130.756 15.7202 126.675 13.4199 124.229 16.1255ZM80.7571 19.2698C78.2858 21.7437 77.6087 24.4518 77.605 31.8834C77.6013 38.3252 78.3654 44.0725 81.3558 60.0935C82.3458 65.3991 83.1563 70.3315 83.1563 71.0537C83.1563 71.776 83.8519 74.1078 84.7024 76.2351C85.5529 78.363 86.7405 82.4668 87.3416 85.3553L88.4347 90.6071L90.579 90.5175C97.0579 90.2475 104.84 89.4313 105.111 88.9926C105.282 88.7158 104.971 86.7461 104.419 84.6163C103.868 82.486 103.033 78.6528 102.565 76.0985C102.096 73.5437 101.139 68.8121 100.438 65.5838C99.7361 62.3555 98.9189 58.324 98.6214 56.6249C96.7715 46.0676 90.3629 25.5726 87.2478 20.2516C85.2141 16.7774 83.505 16.5191 80.7571 19.2698ZM69.1021 67.16C65.2476 69.8631 65.2247 73.5882 68.9744 88.2895C71.7735 99.2614 73.635 103.891 75.2484 103.891C75.5243 103.891 75.7496 103.1 75.7496 102.134C75.7496 99.7977 77.9593 93.4622 79.2863 91.9948C79.9424 91.2688 80.8836 90.9278 81.765 91.0964C82.5464 91.246 83.3241 91.1446 83.4926 90.8709C83.8642 90.2691 82.2008 81.9144 80.8571 77.6321C80.3238 75.933 79.0956 73.7939 78.1271 72.8783C77.1587 71.9632 76.3668 70.9419 76.3668 70.6089C76.3668 70.2758 75.6478 69.1483 74.7688 68.1028C73.0023 66.0009 71.1865 65.6988 69.1021 67.16ZM47.1957 74.3883C43.2233 77.1489 42.8344 79.6722 44.9336 89.0624C47.3123 99.7038 48.0468 102.353 49.5436 105.691C51.2132 109.416 51.2533 109.452 53.7852 109.452C59.2901 109.452 61.0208 106.287 61.0054 96.2469C60.9887 85.2126 58.713 77.8656 54.1117 73.9898C51.6372 71.9058 50.6898 71.9601 47.1957 74.3883ZM128.425 92.7931C127.693 93.0748 122.832 93.309 117.624 93.3133C107.548 93.3226 96.0858 94.161 90.5407 95.2948C88.6859 95.6735 86.2788 96.035 85.1925 96.0974C82.9038 96.2284 83.0927 96.0622 81.607 99.2571C80.3738 101.91 80.2214 105.572 81.2632 107.521C81.6169 108.182 82.9513 109.371 84.2284 110.163C87.3861 112.119 97.2653 112.522 105.401 111.025C111.579 109.889 112.783 110.201 112.783 112.941C112.783 114.807 111.345 115.386 104.62 116.227C101.811 116.578 98.2628 117.462 96.7351 118.191C95.2075 118.92 93.0287 119.951 91.8936 120.482C88.494 122.073 85.2548 125.689 84.0932 129.189C82.4557 134.124 82.6045 136.301 84.7314 138.53C86.501 140.384 86.5176 140.461 85.3529 141.317C83.8642 142.412 83.1674 142.402 81.6626 141.262C79.2962 139.469 78.2265 137.057 78.2228 133.504C78.2166 128.311 79.7665 124.568 83.5371 120.671C86.5701 117.536 87.1454 116.248 85.5128 116.248C84.4481 116.248 77.168 110.823 76.7421 109.712C76.4804 109.03 75.9162 108.808 75.0305 109.04C73.5659 109.423 70.8908 108.249 69.5323 106.628C69.0478 106.05 68.1911 104.433 67.6282 103.035C66.5129 100.264 66.2074 100.577 65.587 105.127C64.8093 110.835 58.7612 116.248 53.1605 116.248C51.1416 116.248 50.9607 116.384 51.2811 117.661C51.4761 118.439 52.1828 121.9 52.8519 125.355C54.5061 133.899 58.6976 146.162 61.248 149.921C65.9592 156.865 72.9672 161.453 81.1367 162.942C95.1359 165.494 99.5811 165.257 111.922 161.299C117.092 159.642 118.395 158.917 122.222 155.572C127.12 151.29 129.281 148.031 131.589 141.436C134.666 132.646 135.163 121.588 133.164 106.375C132.453 100.963 130.77 93.3874 130.122 92.6794C129.921 92.46 129.158 92.5113 128.425 92.7931Z" fill="black"/>
</svg>
