<svg width="144" height="305" viewBox="0 0 144 305" fill="none" xmlns="http://www.w3.org/2000/svg">
<g clip-path="url(#clip0_82_15447)">
<path fill-rule="evenodd" clip-rule="evenodd" d="M104 0.691941C91.467 2.79494 80.398 17.0609 76.604 35.9999C71.459 61.6889 70.748 78.6989 74.132 95.1419C75.304 100.839 76.371 106.4 76.503 107.5C76.634 108.6 77.149 109.421 77.647 109.325C78.144 109.228 80.289 112.524 82.412 116.648L86.272 124.147L82.001 128.499C76.837 133.761 77.085 136 82.829 136H86.721L87.336 141.187C87.844 145.479 88.644 147.081 91.975 150.475C96.393 154.976 96.709 156.589 94.865 165.201C93.889 169.759 92.719 171.548 86.495 178C77.877 186.933 77 188.457 77 194.504C77 198.254 77.886 200.6 81.637 206.778C84.187 210.979 86.887 215.03 87.637 215.779C88.459 216.602 89 219.336 89 222.667C89 228.998 87.658 231.422 79.403 240C73.251 246.393 71.858 249.501 71.858 256.84C71.857 262.15 71.845 262.17 69.818 260.34C68.044 258.739 67.847 257.657 68.296 252C68.778 245.943 68.741 245.789 67.764 249.75C66.567 254.604 65.381 255.131 63.975 251.435C61.755 245.595 63.883 229.997 67.436 226.071C69.601 223.678 69.408 216.72 67.048 212.094C64.595 207.286 60.194 202 58.643 202C57.995 202 55.744 200.831 53.641 199.402C50.559 197.307 49.949 196.387 50.495 194.652C50.868 193.468 51.152 191.6 51.127 190.5C51.101 189.4 52.822 185.575 54.951 182C60.439 172.782 60.819 169.052 57.093 160.992C55.442 157.421 52.927 153.422 51.503 152.103C47.34 148.25 46.636 146.265 48.987 145.007C51.108 143.872 51.76 139.587 49.979 138.487C49.394 138.125 50.734 135.857 53.116 133.178C57.625 128.107 60.582 122.209 65.237 109C70.54 93.9569 70.194 71.7989 64.376 53.7849C58.321 35.0349 48.843 19.7919 41.505 17.0019C35.959 14.8929 22.596 17.0149 17.192 20.8629C10.172 25.8619 4.33199 38.7209 1.46299 55.4999C-0.97301 69.7499 0.0219889 81.0489 5.42399 100.456C10.139 117.396 24.402 133.792 36.739 136.455C41.21 137.42 41.654 138.708 38.609 141.886C37.174 143.384 36 145.393 36 146.35C36 147.756 36.624 147.988 39.25 147.558C42.217 147.071 42.848 147.47 46.5 152.142C56.266 164.637 57.069 169.93 51.023 181.955C48.835 186.306 46.754 191.685 46.399 193.909C45.807 197.608 46.048 198.23 49.227 201.226C51.139 203.027 54.577 205.738 56.867 207.252C65.276 212.808 66.374 217.535 62.033 229.5C60.443 233.884 59.854 237.79 59.848 244C59.841 251.984 60.057 252.861 63.42 258.441C65.389 261.709 67 264.821 67 265.358C67 265.894 67.294 266.039 67.653 265.68C68.639 264.694 73 271.082 73 273.513C73 274.681 73.67 277.893 74.489 280.651C75.812 285.106 75.809 286.315 74.457 291.504C73.53 295.062 73.307 297.572 73.887 297.93C74.41 298.253 74.995 300.089 75.188 302.009C75.523 305.339 75.598 305.246 76.816 300C78.978 290.692 79.308 280.105 77.625 274C76.234 268.951 76.246 268.395 77.78 267.225C79.16 266.172 79.237 265.609 78.225 263.989C76.745 261.62 76.639 255.744 77.991 251.032C78.536 249.131 81.397 245.084 84.349 242.038C94.685 231.372 96.357 218.946 88.794 209C87.748 207.625 85.567 204.751 83.946 202.612C79.054 196.157 80.523 189.24 88.413 181.573C96.105 174.1 97.915 170.227 99.498 157.846C100.061 153.445 99.85 152.894 95.591 147.665C90.742 141.711 90.434 139.566 93.929 136.071C96.208 133.792 96.524 132.442 95 131.5C93.182 130.376 93.979 129.539 100.711 125.5C113.58 117.779 119.733 110.679 131.78 89.6489C139.262 76.5869 144.003 59.5659 143.996 45.7919C143.99 33.9059 141.55 21.4019 138.332 16.7569C130.017 4.75894 116.752 -1.44806 104 0.691941ZM97.927 6.91394C88.274 12.1879 81.113 25.3289 78.534 42.4999C76.045 59.0669 74.773 74.6809 75.274 82.4999C75.787 90.5189 79.265 101.63 85.21 114.25C89.314 122.962 89.348 123 93.082 123C95.917 123 98.65 121.785 104.277 118.021C112.973 112.205 119.043 105.44 124.933 94.9999C127.261 90.8749 129.733 86.8249 130.428 85.9999C133.559 82.2779 138.947 63.7629 139.012 56.4999C139.032 54.2999 139.485 50.6999 140.021 48.4999C141.199 43.6539 139.439 26.8859 137.311 22.6889C136.195 20.4889 135.3 19.9459 133.193 20.1889C130.06 20.5509 129.173 23.5889 130.949 27.8759C132.287 31.1059 130.01 43.7469 127.844 45.1139C125.698 46.4689 123.702 43.1549 125.551 41.3069C126.348 40.5089 127 39.2509 127 38.5099C127 37.7699 127.297 36.3899 127.659 35.4449C128.085 34.3359 127.892 33.8689 127.115 34.1279C126.453 34.3489 124.694 38.0859 123.206 42.4319C121.718 46.7779 119.938 50.5209 119.25 50.7499C117.599 51.2999 117.686 48.4549 119.471 43.4999C120.264 41.2999 120.932 38.6339 120.956 37.5759C120.998 35.7519 120.879 35.7649 118.686 37.8259C115.884 40.4569 115.003 40.5589 114.991 38.2499C114.986 37.2879 116.393 35.3399 118.118 33.9219C120.836 31.6879 121.103 31.0609 120.12 29.2239L118.986 27.1049L116.538 29.5529C115.192 30.8989 113.62 31.9999 113.045 31.9999C111.13 31.9999 111.967 29.0149 114.5 26.8129C117.795 23.9479 117.673 23.1489 113.348 19.3019C110.471 16.7419 110.028 15.9269 111.258 15.4539C113.149 14.7289 118.547 17.3689 119.819 19.6399C120.324 20.5429 121.246 20.9659 121.868 20.5809C123.426 19.6189 123.292 17.9999 121.655 17.9999C120.915 17.9999 119.554 17.1649 118.63 16.1429C117.25 14.6189 117.187 14.0899 118.276 13.1859C119.272 12.3589 120.583 12.6879 123.551 14.5119C127.619 17.0109 132 17.7749 132 15.9859C132 14.6929 125.858 9.06794 124.404 9.02894C123.801 9.01294 121.794 8.24494 119.945 7.32294C114.707 4.70994 102.379 4.48094 97.927 6.91394ZM22.5 21.8809C16.922 24.4419 15.357 26.5399 11.875 36.1239C9.04499 43.9119 8.83299 45.4379 8.85899 57.8599C8.87399 65.2079 8.57399 70.9079 8.19299 70.5269C7.81199 70.1459 7.26399 65.2589 6.97499 59.6669L6.44899 49.4999L5.11099 53.9999C1.94699 64.6439 5.65899 95.6289 11.461 107C14.006 111.987 20.023 120.338 21.844 121.408C22.693 121.908 25.264 124.045 27.556 126.158C33.136 131.302 35.9 131.416 32.47 126.36C31.111 124.359 30.002 122.221 30.004 121.61C30.006 121 30.952 122.075 32.106 124C37.634 133.221 42.482 135.158 48.515 130.556C56.28 124.634 64.621 104.751 65.689 89.6199C66.016 84.9799 66.002 80.4479 65.658 79.5499C65.104 78.1079 64.669 78.1839 61.927 80.2089C59.313 82.1379 58.903 82.9949 59.329 85.6319C59.608 87.3549 59.497 89.1549 59.083 89.6319C58.669 90.1089 57.537 92.6549 56.567 95.2889C54.44 101.068 50.493 106 47.995 106C46.989 106 45.297 107.194 44.235 108.652C40.919 113.204 39.68 110.566 42.51 104.98C45.559 98.9629 45.617 97.7849 42.843 98.1869C39.112 98.7279 39.703 96.2129 43.935 93.5409C49.015 90.3339 49.125 88.8249 44.25 89.2069C39.324 89.5919 39.159 87.1349 44 85.4859C47.745 84.2099 48.122 82.9319 46.728 76.2499C45.737 71.4989 48.254 72.0189 50.515 77.0329C52.913 82.3509 54.112 80.8469 52.777 74.1939C52.03 70.4669 52.027 68.5729 52.769 67.8309C54.485 66.1149 55.725 67.6779 56.442 72.4639C56.813 74.9329 57.474 77.1749 57.911 77.4449C58.349 77.7159 60.123 77.4019 61.853 76.7489C65.775 75.2689 65.84 73.7649 62.541 60.7599C58.115 43.3109 47.834 24.9749 40.316 21.1199C36.918 19.3779 27.031 19.7999 22.5 21.8809ZM108.507 23.9889C108.157 24.5549 108.558 24.7229 109.448 24.3819C111.18 23.7169 111.497 22.9999 110.059 22.9999C109.541 22.9999 108.843 23.4449 108.507 23.9889ZM123.014 24.2499C123.045 27.1139 124.322 29.9999 125.558 29.9999C127.59 29.9999 128.114 28.4299 127.032 25.5839C126.036 22.9649 122.989 21.9539 123.014 24.2499ZM11.141 81.4999C11.141 82.5999 11.527 84.3999 12 85.4999L12.859 87.4999V85.4999C12.859 84.3999 12.473 82.5999 12 81.4999L11.141 79.4999V81.4999ZM53.02 86.4759C52.231 87.4259 52.155 87.9999 52.819 87.9999C54.027 87.9999 55.436 86.1029 54.743 85.4089C54.491 85.1579 53.716 85.6379 53.02 86.4759ZM14 90.6789C14 93.2469 16.287 98.9999 17.308 98.9999C17.806 98.9999 17.892 98.2129 17.499 97.2499C17.105 96.2869 16.361 94.0369 15.845 92.2499C14.825 88.7179 14 88.0159 14 90.6789ZM25 113C25.589 114.1 26.295 115 26.57 115C26.845 115 26.589 114.1 26 113C25.411 111.9 24.705 111 24.43 111C24.155 111 24.411 111.9 25 113Z" fill="black"/>
</g>
<defs>
<clipPath id="clip0_82_15447">
<rect width="144" height="305" fill="white"/>
</clipPath>
</defs>
</svg>
