<svg width="206" height="154" viewBox="0 0 206 154" fill="none" xmlns="http://www.w3.org/2000/svg">
<g clip-path="url(#clip0_82_15443)">
<path fill-rule="evenodd" clip-rule="evenodd" d="M112.375 0.914062C111.207 1.23606 108.347 3.17806 106.02 5.22906C102.319 8.49006 101.536 8.80306 99.772 7.72906C94.38 4.44306 93.2 4.02806 89.193 4.01506C81.61 3.98906 76.413 5.89706 72.041 10.3141L67.979 14.4161L66.357 12.1001C64.332 9.20906 57.54 6.05106 53.285 6.02206C49.126 5.99406 43.81 10.5951 39.806 17.6901C38.158 20.6111 36.653 23.0001 36.462 23.0001C36.271 23.0001 34.467 22.0281 32.453 20.8401C28.043 18.2381 19.343 17.9941 13.783 20.3171C9.271 22.2031 8.125 26.3451 10.369 32.6601L11.848 36.8201L8.919 38.0331C6.017 39.2351 0 45.2531 0 46.9531C0 49.3541 1.6 51.2651 5.107 53.0551L8.968 55.0241L5.484 59.5891C2.714 63.2171 2 65.0631 2 68.5911C2 72.5151 2.372 73.2561 5.21 74.9811C6.975 76.0551 9.675 77.2091 11.21 77.5461C14.797 78.3341 14.723 79.1561 10.75 82.6541C2.244 90.1431 -1.634 101.331 2.23 107.229C4.472 110.65 15.037 115.765 22 116.8C26.057 117.403 27.398 117.996 27.109 119.059C26.894 119.851 26.505 124.134 26.243 128.575C25.633 138.933 26.949 141.681 34.381 145.572L39.865 148.444L45.183 146.591C51.105 144.528 58.763 140.024 61.51 136.989C63.839 134.416 66 134.445 66 137.05C66 143.88 77.338 154 84.99 154C91.373 154 99.091 148.07 102.782 140.331L104.32 137.106L108.628 140.199C114.211 144.209 121.108 145.986 126.452 144.792C133.452 143.227 141.301 138.701 147 132.942C152.192 127.696 152.64 127.457 155 128.678C159.269 130.886 169.781 130.315 175.712 127.554C182.35 124.463 190.45 116.036 192.523 110.063C195.293 102.082 195.516 93.2811 193.109 87.0001C191.95 83.9751 191.001 81.4131 191.001 81.3081C191 81.2021 193.18 79.8901 195.844 78.3931C201.594 75.1601 204.974 70.6151 205.71 65.1251C206.626 58.2951 205.295 54.4841 199.95 48.6361C193.269 41.3261 187.403 39.7431 177.701 42.6301C176.039 43.1251 175.954 42.5861 176.591 35.5611L177.28 27.9561L173.138 24.0161C166.324 17.5351 158.775 16.5961 148.588 20.9621C144.352 22.7781 144 22.7971 143.994 21.2141C143.971 14.0931 138.088 5.67306 130.603 2.05006C126.387 0.00906169 117.633 -0.535938 112.375 0.914062ZM110.834 5.52106C106.226 8.54006 104 11.6781 104 15.1511C104 17.9291 101.456 21.4001 100.054 20.5341C99.623 20.2671 99.018 18.1691 98.71 15.8721C97.873 9.63406 94.752 7.02506 87.978 6.90106C76.883 6.69706 69.936 12.7861 70.12 22.5541C70.266 30.2881 70.229 30.4351 68.5 29.0001C67.647 28.2921 67 26.1121 67 23.9431C67 21.8461 66.567 18.9911 66.037 17.5991C64.773 14.2741 57.414 9.00006 54.039 9.00006C51.219 9.00006 45.837 13.1121 47.801 13.7671C48.425 13.9751 47.124 16.0251 44.911 18.3221C41.238 22.1361 40.9 22.9361 41.029 27.5001C41.257 35.5771 41.136 36.1731 39.331 35.8231C38.324 35.6281 37.036 33.5181 36.081 30.5001C34.211 24.5861 30.228 22.0041 22.973 22.0021C15.533 21.9991 12.002 26.2841 14.927 31.7641C15.437 32.7191 16.073 34.2241 16.341 35.1081C16.639 36.0921 18.465 36.9791 21.04 37.3901C26.651 38.2881 29 39.6581 29 42.0351C29 44.5911 25.669 44.6261 19.125 42.1401C14.855 40.5171 13.748 40.4451 10.464 41.5731C8.394 42.2851 6.324 43.4601 5.865 44.1841C2.607 49.3211 8.554 52.4941 19.516 51.4661C26.966 50.7681 28.564 51.3651 27.396 54.4101C26.92 55.6501 25.274 56.0001 19.926 56.0001C13.46 56.0001 12.872 56.1951 9.67 59.3971C6.089 62.9771 4.601 67.3861 6.055 70.1021C7.794 73.3511 19.27 76.4261 26.136 75.4811C30.596 74.8681 31 74.9831 31 76.8711C31 79.3561 28.104 81.1011 25.229 80.3501C19.776 78.9241 5.484 91.2451 4.328 98.3681C3.766 101.832 5.282 106 7.105 106C7.674 106 10.194 107.413 12.705 109.141C16.612 111.829 18.135 112.275 23.266 112.232C27.678 112.196 29.991 111.643 32.023 110.141C35.886 107.285 42.368 107.675 42.819 110.791C43.058 112.438 42.424 113.268 40.319 114.065C33.285 116.73 29.984 122.381 30.122 131.522L30.222 138.185L34.861 141.133C39.926 144.352 41.037 144.327 49.217 140.81C51.812 139.695 54.21 138.043 54.547 137.141C55.16 135.499 66.937 125.345 69.265 124.452C70.18 124.101 70.5 125.99 70.5 131.739C70.5 140.594 72.298 144.23 78.269 147.445C83.181 150.091 87.741 148.938 93.755 143.53C98.701 139.084 102 132.194 102 126.312C102 122.361 105.344 123.764 106.05 128.011C106.369 129.93 107.157 132.472 107.802 133.661C109.287 136.396 114.495 139.55 118.885 140.371C125.818 141.668 138.639 136.285 144.965 129.422C148.24 125.869 149 124.31 149 121.145C149 116.688 151.487 113.577 153.061 116.064C153.561 116.854 153.982 118.4 153.997 119.5C154.04 122.6 160.122 126 165.626 126C181.086 126 194.416 107.952 191.024 91.6141C189.864 86.0281 188.141 83.7371 184.193 82.5331C180.29 81.3421 181.982 78.7701 187.5 77.5051C195.087 75.7661 198.741 73.4281 201.1 68.8031C204.971 61.2161 201.323 50.7831 193.288 46.4561C189.088 44.1941 179.867 44.9831 175.858 47.9471C172.547 50.3951 171.644 50.4811 170.004 48.5051C169.005 47.3011 169.079 46.5281 170.386 44.5331C172.464 41.3621 174.361 32.5741 173.612 29.5891C172.818 26.4261 166.427 22.4461 161 21.7351C154.77 20.9181 146.347 25.0411 143.5 30.3001C141.405 34.1701 139.946 34.8441 138.205 32.7471C137.466 31.8571 137.718 30.2861 139.074 27.3281C142.78 19.2441 140.153 12.2531 130.822 5.36906C126.244 1.99106 116.101 2.06806 110.834 5.52106ZM26.813 34.6831C27.534 34.9721 28.397 34.9361 28.729 34.6041C29.061 34.2721 28.471 34.0361 27.417 34.0791C26.252 34.1271 26.015 34.3641 26.813 34.6831ZM64.607 39.5821C64.273 40.4521 64 44.2221 64 47.9591C64 55.8311 63.571 56.3831 55.928 58.3391C52.942 59.1031 50.545 60.2391 50.6 60.8641C50.655 61.4891 50.767 62.4501 50.85 63.0001C51.083 64.5541 56.966 64.1771 58.643 62.5001C59.468 61.6751 60.919 61.0001 61.867 61.0001C63.338 61.0001 63.631 62.2121 63.863 69.2501C64.157 78.1441 65.255 80.6911 67.49 77.6641C68.347 76.5041 68.635 74.5261 68.273 72.2921L67.699 68.7571L70.349 70.4931C71.807 71.4481 73 72.6501 73 73.1631C73 73.6761 74.191 75.1991 75.646 76.5481C77.62 78.3771 79.408 79.0001 82.686 79.0001C87.09 79.0001 95 75.7971 95 74.0131C95 73.4931 93.313 74.0541 91.25 75.2601L87.5 77.4531L90.25 74.1501C91.762 72.3331 93 70.4581 93 69.9821C93 67.9911 90.698 67.9351 88.633 69.8751C85.333 72.9751 80.319 74.5101 78.479 72.9831C76.096 71.0051 76.748 69.1851 80.75 66.6421C86.498 62.9901 88.185 60.6521 87.82 56.8441C87.343 51.8631 83.908 51.7581 79.354 56.5861C77.414 58.6431 75.427 61.3781 74.938 62.6631C74.301 64.3371 73.263 65.0001 71.275 65.0001C68.881 65.0001 68.5 64.6031 68.5 62.1051C68.5 60.5131 69.287 58.3401 70.25 57.2761C72.547 54.7391 72.458 54.0001 69.855 54.0001C67.83 54.0001 67.743 53.6531 68.287 47.7501C68.686 43.4161 68.466 40.9631 67.571 39.7501C65.976 37.5891 65.385 37.5551 64.607 39.5821ZM131.774 50.9101C128.853 53.5211 128.387 53.6441 126.394 52.3381C122.002 49.4611 115.638 53.5861 117.912 57.8361C119.065 59.9901 126.638 67.0001 127.812 67.0001C129.413 67.0001 131.887 64.4061 134.914 59.5541C140.248 51.0051 138.146 45.2171 131.774 50.9101ZM123.5 58.0001C123.84 58.5501 124.568 59.0001 125.118 59.0001C125.668 59.0001 125.84 58.5501 125.5 58.0001C125.16 57.4501 124.432 57.0001 123.882 57.0001C123.332 57.0001 123.16 57.4501 123.5 58.0001ZM80.98 59.5241C79.048 61.8531 80.426 62.2911 82.494 60.0061C83.493 58.9031 83.845 58.0001 83.277 58.0001C82.71 58.0001 81.676 58.6861 80.98 59.5241ZM147.144 84.4541C141.969 86.3281 137.481 90.4151 134.09 96.3421C130.556 102.52 130.225 105.821 132.82 109.026C136.441 113.498 146.922 110.858 155 103.439C156.375 102.176 160.412 99.6411 163.971 97.8061C170.487 94.4451 175 89.5541 175 85.8521C175 83.1561 173.739 83.5921 171.829 86.9491C170.17 89.8661 160.82 95.4871 159.622 94.2881C159.28 93.9461 159 92.3711 159 90.7881C159 87.4761 155.032 82.9371 152.295 83.1191C151.308 83.1851 148.99 83.7861 147.144 84.4541ZM115.596 90.2501L113.048 93.5001L111.467 91.2501C109.615 88.6131 107.758 88.3821 105.947 90.5641C105.117 91.5641 103.801 91.9161 102.302 91.5401C99.87 90.9291 99.678 91.1731 98.554 96.2931C98.216 97.8291 97.166 99.3711 96.22 99.7201C95.274 100.069 94.275 100.634 94 100.975C92.434 102.921 86.743 106.097 85.316 105.822C82.799 105.337 82.065 100.905 83.7 96.0671C85.552 90.5891 84.89 88.9931 80.781 89.0281C75.549 89.0731 68.923 93.1111 64.291 99.0781C59.76 104.913 59.138 107.281 61.509 109.652C62.339 110.482 62.72 111.643 62.356 112.233C60.807 114.739 70.089 112.098 74.159 108.874C76.907 106.697 78.494 105.981 78.765 106.795C80.327 111.482 85.737 112.222 91.215 108.5C95.645 105.49 95.634 105.491 96.29 108C97.189 111.439 99.018 110.209 101.564 104.451C107.002 92.1541 109.358 91.5011 109.498 102.252C109.563 107.215 109.917 108.553 111.233 108.806C112.458 109.042 113.05 108.137 113.519 105.312C114.426 99.8471 116.027 95.8321 118.324 93.2621C121.463 89.7531 122.872 91.9391 123.21 100.839C123.438 106.853 123.822 108.5 125 108.5C126.23 108.5 126.486 106.846 126.424 99.3121C126.34 89.1151 125.4 87.0001 120.95 87.0001C118.975 87.0001 117.391 87.9611 115.596 90.2501ZM151 88.5001C151 89.3251 150.311 90.0001 149.469 90.0001C147.362 90.0001 146.619 92.4201 147.958 94.9221C148.756 96.4121 150.05 97.0001 152.535 97.0001C155.735 97.0001 156 96.7651 156 93.9341C156 92.2481 155.534 89.9981 154.965 88.9341C153.742 86.6491 151 86.3481 151 88.5001ZM73.5 94.6491C69.622 96.6161 64.834 102.854 65.209 105.454C65.369 106.568 66.337 107.639 67.361 107.834C70.45 108.424 80 98.0081 80 94.0501C80 92.5791 77.045 92.8511 73.5 94.6491ZM137.124 97.5151C135.956 99.4951 135 101.674 135 102.357C135 105.943 140.414 106.963 146.94 104.605C150.852 103.191 152.184 101 149.13 101C146.651 101 142.047 98.9951 141.875 97.8391C141.806 97.3781 141.694 96.4751 141.625 95.8331C141.351 93.2791 139.134 94.1071 137.124 97.5151ZM59 113C59 113.55 59.477 114 60.059 114C60.641 114 60.84 113.55 60.5 113C60.16 112.45 59.684 112 59.441 112C59.198 112 59 112.45 59 113Z" fill="black"/>
</g>
<defs>
<clipPath id="clip0_82_15443">
<rect width="206" height="154" fill="white"/>
</clipPath>
</defs>
</svg>
