<svg width="81" height="167" viewBox="0 0 81 167" fill="none" xmlns="http://www.w3.org/2000/svg">
<g clip-path="url(#clip0_82_15449)">
<path fill-rule="evenodd" clip-rule="evenodd" d="M19.852 2.01588C14.764 4.70388 9.41297 11.3009 8.10397 16.5009C5.24397 27.8589 8.55497 45.8629 15.001 54.0009C20.331 60.7299 22.759 64.2079 25.051 68.3889C26.978 71.9049 27.065 72.7189 25.953 76.8889C23.364 86.5949 20.11 97.6969 18.445 102.5C17.492 105.25 16.361 108.85 15.931 110.5C15.501 112.15 13.294 118.65 11.025 124.944C5.84797 139.31 1.21297 156.123 0.808965 162C0.543965 165.857 0.769965 166.5 2.39197 166.5C5.36897 166.5 7.76097 162.269 10.591 152C14.721 137.009 18.05 125.698 19.065 123.203C19.579 121.94 19.968 120.14 19.93 119.203C19.872 117.801 19.708 117.853 19 119.5C18.277 121.182 18.129 120.988 18.07 118.284C17.988 114.533 21.048 107.459 22.05 109.081C22.678 110.098 26.468 97.4689 30.768 80.0279L32.61 72.5569L39.797 69.8139C43.75 68.3059 49.35 65.5309 52.242 63.6489C62.79 56.7839 77.682 38.6079 80.092 29.6589C81.602 24.0489 80.807 15.9519 78.433 12.7709C75.979 9.48188 68.912 5.99688 64.723 6.00988C57.876 6.03088 48.613 12.3189 42.797 20.8949C41.532 22.7599 40.974 23.0319 40.631 21.9529C37.131 10.9609 35.857 7.73388 33.614 4.18088C31.27 0.467881 30.557 0.00488068 27.237 0.0438807C25.182 0.0688807 21.859 0.955881 19.852 2.01588ZM24 4.99988C24 5.54988 24.623 5.99988 25.384 5.99988C26.145 5.99988 28.393 7.79988 30.381 9.99988C32.369 12.1999 34.233 13.9999 34.523 13.9999C35.27 13.9999 32.065 7.84888 30.224 5.74988C28.587 3.88288 24 3.32988 24 4.99988ZM17.847 8.83688C13.211 12.2159 11.667 16.7589 11.573 27.3009C11.477 38.0269 14.438 46.5489 20.676 53.5059C23.139 56.2529 25.777 59.9749 26.538 61.7789C27.707 64.5479 28.302 64.9619 30.364 64.4449C32.044 64.0229 33.087 64.3339 33.707 65.4409C34.511 66.8779 35.036 66.8989 38.625 65.6319C54.372 60.0759 70.997 44.2009 75.834 30.1009C79.506 19.3959 74.112 10.5279 65.034 12.3429C63.281 12.6939 61.991 12.4729 61.761 11.7839C61.541 11.1239 60.837 10.9829 60.084 11.4479C59.022 12.1049 59.023 12.3959 60.091 13.0559C61.001 13.6189 60.508 14.0849 58.46 14.5989C52.415 16.1169 43.084 27.2429 41.503 34.8209C41.006 37.2009 40.389 37.9799 39.323 37.5709C38.506 37.2569 37.371 36.9999 36.802 36.9999C36.196 36.9999 36.013 35.8599 36.36 34.2499C36.695 32.6939 35.986 27.8559 34.726 23.1079C33.028 16.7059 31.67 13.8179 29 10.9249C24.414 5.95788 22.333 5.56788 17.847 8.83688ZM24.401 12.4609C20.638 14.0579 16.746 20.0159 17.182 23.5099C17.622 27.0399 19.368 26.7429 20.132 23.0089C20.826 19.6169 23.613 15.9999 25.533 15.9999C26.205 15.9999 27.331 15.3059 28.035 14.4579C30.009 12.0789 27.956 10.9509 24.401 12.4609ZM55.156 47.9419C53.316 50.2389 49.829 53.0809 47.406 54.2579C42.691 56.5489 41.559 59.0209 45.25 58.9669C47.974 58.9269 54.584 54.4769 57.243 50.8929C58.306 49.4589 59.024 47.2689 58.838 46.0269C58.528 43.9539 58.223 44.1119 55.156 47.9419ZM21.079 112.583C21.127 113.748 21.364 113.985 21.683 113.188C21.972 112.466 21.936 111.603 21.604 111.271C21.272 110.939 21.036 111.529 21.079 112.583Z" fill="black"/>
</g>
<defs>
<clipPath id="clip0_82_15449">
<rect width="81" height="167" fill="white"/>
</clipPath>
</defs>
</svg>
