<svg width="207" height="307" viewBox="0 0 207 307" fill="none" xmlns="http://www.w3.org/2000/svg">
<g clip-path="url(#clip0_82_15451)">
<path fill-rule="evenodd" clip-rule="evenodd" d="M127.783 1.75016C124.893 5.06316 124 7.88416 124.004 13.6842C124.007 19.3822 126.636 26.0002 128.896 26.0002C130.116 26.0002 134.661 20.5552 136.648 16.7142C138.533 13.0692 138.028 6.21716 135.601 2.51416C133.667 -0.436842 130.004 -0.795842 127.783 1.75016ZM56.432 7.25016C51.586 11.7002 50.408 17.1352 52.508 25.3602C53.37 28.7372 54.921 32.3502 55.955 33.3892C58.058 35.5042 61 34.9542 61 32.4462C61 31.5572 62.575 27.6322 64.5 23.7252C68.36 15.8902 69.024 9.90716 66.443 6.22316C64.23 3.06316 60.583 3.43816 56.432 7.25016ZM128.526 7.95016C126.834 11.2222 126.525 17.7012 127.954 19.9602C129.304 22.0952 132.694 18.7532 134.168 13.8342C136.324 6.63716 131.699 1.81416 128.526 7.95016ZM57.987 10.5142C55.197 13.4842 53.998 23.2602 55.972 26.9482C57.124 29.1012 57.281 28.9962 60.576 23.8822C64.23 18.2112 65.594 13.4482 64.528 10.0872C63.635 7.27516 60.86 7.45616 57.987 10.5142ZM92.368 15.5712C90.516 17.5352 89 19.7852 89 20.5712C89 22.7632 87.409 22.2732 85.61 19.5272C82.327 14.5172 73.411 14.6092 71.101 19.6772C69.51 23.1702 68.608 30.3042 69.374 33.3522C70.407 37.4692 74.852 42.0022 77.839 41.9852C80.995 41.9672 82.717 41.0152 83.17 39.0402C83.419 37.9522 82.604 37.6642 79.854 37.8672C74.933 38.2292 73 35.4412 73 27.9772C73 21.7792 74.125 20.0002 78.045 20.0002C81.236 20.0002 83.334 22.2132 84.969 27.3052C86.609 32.4092 88.734 31.7932 91.197 25.5002C93.523 19.5602 95.628 17.0002 98.186 17.0002C102.63 17.0002 101.293 22.9672 95.41 29.3892C93.04 31.9762 92.195 33.5952 92.864 34.2642C94.514 35.9142 96.404 34.5112 100.458 28.6262C104.662 22.5222 105.245 18.5482 102.542 14.4232C100.192 10.8372 96.434 11.2612 92.368 15.5712ZM38.072 20.6352C36.932 22.0852 35.479 25.0062 34.844 27.1262L33.689 30.9812L28.595 30.4322C24.533 29.9942 22.836 30.3002 20.225 31.9422C15.613 34.8412 14.34 38.6162 16.835 41.9912C18.513 44.2612 18.585 44.8482 17.382 46.4922C14.25 50.7752 17.045 57.0002 22.1 57.0002C24.265 57.0002 26.425 55.7472 29.957 52.4432C34.396 48.2912 34.886 48.0652 35.468 49.8992C35.819 51.0062 37.467 53.0572 39.13 54.4562L42.153 57.0002L39.077 59.5892C36.299 61.9262 36 62.7362 36 67.9152C36 73.6572 34.8 75.8202 30.143 78.4762C28.153 79.6122 29.688 75.0922 32.241 72.3012C34.413 69.9262 34.021 67.0002 31.531 67.0002C30.689 67.0002 30 67.3442 30 67.7642C30 68.8072 22.458 72.0002 19.993 72.0002C17.502 72.0002 17.32 68.8222 19.677 66.4662C20.993 65.1502 22.391 64.9272 26.177 65.4292C30.081 65.9472 31 65.7832 31 64.5702C31 62.5282 27.851 61.0002 23.642 61.0002C16.374 61.0002 10.311 70.3712 14.549 75.0542C15.597 76.2132 17.093 76.8162 18.168 76.5142C19.176 76.2312 20.9 75.7452 22 75.4332C23.519 75.0022 24 75.3432 24 76.8512C24 80.9802 23.106 81.7512 19.154 81.0282C14.477 80.1732 10.525 80.6772 6.799 82.6042C3.545 84.2862 -0.00699941 89.4842 0.0360006 92.5002C0.0730006 95.1492 2.315 98.0002 4.36 98.0002C6.516 98.0002 6.457 98.3152 3.402 103.155C1.458 106.235 0.958003 108.038 1.414 110.32C3.394 120.222 13.554 118.604 20.856 107.224C24.226 101.972 24.743 100 22.75 100C21.477 100 16.006 106.233 15.993 107.697C15.989 108.138 14.375 109.598 12.405 110.939C9.62 112.836 8.454 113.138 7.162 112.299C5.262 111.064 5.271 106.75 7.182 103.167C8.764 100.202 15.87 96.0002 19.303 96.0002C22.186 96.0002 24.348 93.1802 23.061 91.0982C22.621 90.3872 21.19 89.8392 19.881 89.8802C15.15 90.0292 12.151 90.5142 11.416 91.2502C11.004 91.6622 9.359 92.0002 7.76 92.0002C3.625 92.0002 4.481 89.2222 9.402 86.6702C12.91 84.8512 13.921 84.7602 19.402 85.7692C22.756 86.3872 26.513 87.1942 27.75 87.5632C29.515 88.0892 30.006 87.8312 30.029 86.3672C30.045 85.3402 32.295 82.1182 35.029 79.2082C37.763 76.2972 40 73.4102 40 72.7912C40 72.1732 40.23 71.8962 40.511 72.1772C40.792 72.4582 40.342 74.6152 39.511 76.9702C36.838 84.5462 37.881 90.0002 42.004 90.0002C42.887 90.0002 45.737 88.6502 48.339 87.0002C50.941 85.3502 53.216 84.0002 53.396 84.0002C53.716 84.0002 52.52 90.6262 51.147 96.4542C50.543 99.0182 49.926 99.4602 46.476 99.7952C44.289 100.008 40.275 100.928 37.557 101.841C33.514 103.198 32.471 104.041 31.835 106.468C30.859 110.188 33.11 114 36.281 114C37.51 114 40.716 112.829 43.404 111.398C47.685 109.119 48.201 109.026 47.559 110.648C46.041 114.482 44.729 123.785 45.355 126.278C45.712 127.702 46.979 129.176 48.171 129.554C49.919 130.109 51.173 129.302 54.667 125.371C58.77 120.756 58.967 120.256 58.42 115.858C57.812 110.974 59.622 107.837 60.69 111.923C61.15 113.681 61.439 113.806 62.373 112.645C62.993 111.874 65.252 110.981 67.393 110.661C72.042 109.966 76 106.567 76 103.269C76 100.053 70.365 95.0002 66.777 95.0002C63.706 95.0002 62.998 93.4082 65.75 92.6892C67.417 92.2542 67.417 92.2262 65.75 92.1162C64.319 92.0212 64 91.0382 64 86.7232C64 81.1452 62.023 77.0002 59.364 77.0002C58.17 77.0002 57.991 76.2992 58.537 73.7502C58.92 71.9632 59.329 70.3892 59.446 70.2542C59.563 70.1192 61.324 70.8182 63.359 71.8082C65.394 72.7972 66.722 73.9452 66.31 74.3572C65.898 74.7692 66.335 74.8092 67.28 74.4462C69.293 73.6742 69.442 74.3192 67.842 76.8812C67.205 77.9012 66.99 79.5322 67.364 80.5052C67.939 82.0042 68.884 82.1892 73.521 81.7102C76.629 81.3892 79 81.5462 79 82.0722C79 82.5832 78.56 83.0002 78.023 83.0002C77.486 83.0002 76.331 84.0912 75.458 85.4242C74.027 87.6072 74.021 88.1402 75.395 90.7972C76.904 93.7142 79.387 94.9602 83.75 94.9862C86.418 95.0032 86.491 95.5802 84.444 100.479C79.237 112.942 89.042 114.659 97.581 102.78C99.668 99.8762 101.506 97.3232 101.664 97.1072C101.822 96.8922 102.525 97.1452 103.226 97.6712C107.782 101.091 121.079 96.6032 128.803 89.0382L133.107 84.8232L135.506 87.4122C138.508 90.6512 143.62 90.8742 147.365 87.9272C150.809 85.2182 150.86 80.5472 147.5 75.5952C144.489 71.1582 144.437 70.5082 146.953 68.7452C149.232 67.1492 150.805 63.4422 150.551 60.2632C150.322 57.3882 146.212 53.0002 143.749 53.0002C141.777 53.0002 137.173 57.0502 135.283 60.4472C134.221 62.3562 134.121 62.3582 130.1 60.5452C125.656 58.5412 125.424 57.9512 127.138 53.0332C128.217 49.9402 128.083 49.5912 124.596 46.3972C121.518 43.5762 121.086 42.7072 121.958 41.0782C123.766 37.7012 123.159 34.2702 120.365 32.0732C115.214 28.0212 110.146 29.8832 106.426 37.1972C105.502 39.0142 104.647 40.6182 104.526 40.7632C104.02 41.3712 97 37.8932 97 37.0342C97 35.2892 87.518 38.9102 85.25 41.5212C81.162 46.2282 83.156 50.2102 90.261 51.5292C92.33 51.9132 94.23 52.5632 94.484 52.9752C94.739 53.3862 93.436 55.8482 91.589 58.4462L88.231 63.1682L86.628 60.8802L85.025 58.5912L82.263 60.6472C80.504 61.9562 79.318 63.9352 79 66.0912C78.343 70.5402 75 71.5552 75 67.3052C75 63.8772 70.803 57.3902 68.012 56.5042C66.402 55.9932 66 54.9962 66 51.5092C66 48.2822 65.329 46.3562 63.411 44.0772C58.395 38.1162 53.109 41.3292 50.358 52.0102C48.567 58.9632 47.378 60.1622 44.248 58.1742C43.332 57.5932 43.784 56.6232 45.93 54.5672C47.724 52.8482 49.118 50.2612 49.515 47.9142C50.068 44.6382 49.783 43.6932 47.582 41.4912C44.674 38.5832 44.425 36.6302 46.5 33.0002C49.884 27.0812 46.548 18.0002 40.991 18.0002C40.526 18.0002 39.212 19.1862 38.072 20.6352ZM147.973 22.6882C142.041 26.7372 136.495 34.8342 137.495 37.9852C138.282 40.4632 140.861 40.6292 141.625 38.2502C144.273 30.0112 147.714 26.0002 152.136 26.0002C155.861 26.0002 155.91 28.3692 152.318 34.8032C150.729 37.6492 149.901 40.2992 150.286 41.3042C151.248 43.8102 152.603 43.3722 153.951 40.1172C157.082 32.5602 164.984 29.1972 167.021 34.5562C168.767 39.1482 162.504 47.0002 157.096 47.0002C154.604 47.0002 154.254 49.7762 156.631 50.6882C158.66 51.4672 163.982 48.6722 167.539 44.9592C171.304 41.0292 171.986 34.5032 169.025 30.7502C167.32 28.5892 166.017 28.0002 162.946 28.0002C159.601 28.0002 158.947 27.6362 158.404 25.4742C157.288 21.0262 152.342 19.7052 147.973 22.6882ZM39.578 25.2402C37.642 28.1962 36.556 33.4002 37.411 35.6282C37.974 37.0952 38.457 36.9362 41.076 34.4272C43.591 32.0182 44.043 30.8822 43.796 27.5962C43.445 22.9222 41.726 21.9622 39.578 25.2402ZM21.011 35.4872C19.565 37.2292 20.302 39.7952 22.49 40.6342C23.334 40.9582 26.044 40.9212 28.512 40.5502C33.802 39.7572 34.407 37.7792 30.05 35.5262C26.308 33.5912 22.598 33.5752 21.011 35.4872ZM111.537 36.5542C109.108 39.1762 107.144 45.4782 108.374 46.7072C109.327 47.6602 116.062 43.7582 117.694 41.3082C121.494 35.6032 116.204 31.5182 111.537 36.5542ZM38.667 41.6672C37.393 42.9412 38.02 46.5202 40.12 49.9652L42.233 53.4312L44.116 51.1052C46.613 48.0212 46.492 46.4012 43.545 43.4552C41.027 40.9362 39.834 40.4992 38.667 41.6672ZM88.177 43.2872C85.942 45.9792 89.302 48.0002 96.012 48.0002C99.241 48.0002 102.123 47.6102 102.417 47.1342C104.426 43.8842 90.747 40.1902 88.177 43.2872ZM22.75 46.5722C19.208 48.4932 18.997 52.0002 22.423 52.0002C24.846 52.0002 31 47.6312 31 45.9112C31 44.4972 25.808 44.9132 22.75 46.5722ZM55.527 47.3192C53.846 49.8832 52.37 60.9152 53.361 63.4982C53.928 64.9772 54.282 64.9352 56.882 63.0842C61.944 59.4802 64.619 49.7622 61.429 46.5712C59.227 44.3692 57.299 44.6132 55.527 47.3192ZM114.253 50.2502C110.756 52.6952 110.146 54.0002 112.5 54.0002C114.275 54.0002 114.516 55.6612 112.823 56.2262C110.903 56.8662 112.923 59.0002 115.448 59.0002C118.506 59.0002 121.632 56.1892 122.418 52.7342C122.948 50.4002 122.642 49.8142 120.458 48.9842C119.034 48.4432 117.78 48.0002 117.671 48.0002C117.561 48.0002 116.023 49.0132 114.253 50.2502ZM116.5 54.0002C115.239 54.5422 115.055 54.8592 116 54.8592C116.825 54.8592 118.4 54.4732 119.5 54.0002C120.761 53.4582 120.945 53.1412 120 53.1412C119.175 53.1412 117.6 53.5272 116.5 54.0002ZM96.83 57.9892C92.979 61.1632 90.071 67.0002 92.34 67.0002C93.926 67.0002 103 57.8212 103 56.2162C103 54.1712 100.637 54.8502 96.83 57.9892ZM140.809 58.7132C138.929 60.8552 136 66.4822 136 67.9502C136 70.0612 141.055 68.9222 144.213 66.1012C147.113 63.5102 147.351 62.9012 146.458 60.3612C145.257 56.9472 142.949 56.2742 140.809 58.7132ZM165.356 58.0442C164.682 58.7182 164.475 64.2982 164.772 73.7942C165.289 90.3202 163.724 121.424 161.466 139.5C158.314 164.725 157.862 169.356 155.613 199.535C154.341 216.605 152.792 231.521 152.17 232.682C151.078 234.724 140.848 241.975 134.296 245.352L131.091 247.004L130.489 243.252C130.158 241.188 129.051 234.775 128.028 229C124.818 210.857 122.302 191.592 120.455 171C120.134 167.425 119.701 155.337 119.491 144.138C119.281 132.939 118.82 122.458 118.466 120.847C118.035 118.884 118.376 117.075 119.501 115.358L121.179 112.797L123.894 115.399C127.173 118.54 130.815 118.72 134.378 115.918C137.567 113.409 141 106.247 141 102.102C141 97.9362 138.973 93.8592 137.083 94.2222C134.924 94.6382 134.446 98.1102 136.397 99.2022C138.526 100.394 138.419 102.084 135.882 107.307C133.501 112.206 130.761 114.376 128.045 113.514C125.744 112.784 123.615 107.793 124.231 104.572C124.79 101.65 123.496 99.0482 122.21 100.508C121.73 101.054 120.76 103.525 120.054 106C118.451 111.62 113.524 118 110.786 118C108.946 118 108.792 117.537 109.259 113.396C109.544 110.864 110.728 107.507 111.889 105.936C115.488 101.068 113.985 98.9802 109.954 103.25C104.975 108.525 103.297 115.95 105.96 120.926C106.985 122.841 107.763 123.138 110.564 122.683C113.732 122.169 113.964 122.328 114.414 125.318C114.678 127.068 115.141 137.733 115.442 149.017C115.929 167.236 118.257 192.062 120.974 208C123.431 222.409 126.116 244.048 125.825 247.091C125.309 252.48 122.716 252.01 116.131 245.334C112.966 242.125 108.849 237.475 106.983 235C105.116 232.525 102.416 229.375 100.983 228C97.547 224.704 90.21 214.872 86.058 208C84.23 204.975 80.778 199.919 78.387 196.764C75.996 193.61 73.334 189.56 72.473 187.764C71.612 185.969 69.36 181.8 67.467 178.5C65.575 175.2 61.997 168.675 59.516 164C57.035 159.325 52.978 152.125 50.5 148C48.022 143.875 43.967 136.563 41.488 131.75C39.008 126.938 36.749 123 36.466 123C36.183 123 36.075 124.756 36.226 126.903C36.377 129.05 36.78 130.634 37.122 130.423C37.464 130.213 38.538 132.169 39.509 134.77C41.56 140.263 47.084 150.617 51.27 156.814C52.873 159.187 56.894 166.387 60.205 172.814C71.013 193.789 96.381 230.173 111.188 245.935C117.25 252.388 119.066 254.973 118.917 256.935C118.611 260.955 121.779 267.298 123.806 266.724C124.738 266.46 126.15 266.076 126.944 265.872C129.178 265.297 129.629 269.78 129.234 288.627L128.875 305.755L131.938 306.204C134.821 306.627 135 306.462 135 303.389C135 300.448 135.273 300.142 137.75 300.312L140.5 300.5V290C140.5 271.348 140.983 259.649 141.721 260.388C142.657 261.324 146.245 270.702 150.946 284.5C153.481 291.941 155.229 295.605 156.347 295.823C159.204 296.382 158.309 290.489 153.885 279.615C145.716 259.537 145 257.588 145 255.417C145 250.892 147.803 251.968 151.989 258.101C156.019 264.005 163.055 278.868 164.367 284.25C165.107 287.283 167.079 287.815 169 285.5C169.841 284.486 169.923 283.595 169.253 282.75C168.707 282.063 167.68 279.7 166.971 277.5C165.465 272.832 162.421 267.16 156.356 257.719C153.96 253.989 152 250.517 152 250.004C152 249.491 152.848 248.617 153.883 248.062C155.415 247.243 159.189 248.957 174.076 257.233C185.624 263.653 194.223 269.166 197.363 272.16C202.393 276.958 204 277.41 204 274.026C204 271.042 195.853 264.704 184.682 258.999C178.976 256.084 172.776 252.405 170.904 250.823L167.5 247.946L173.5 250.625C178.431 252.827 196.474 259.539 203.164 261.661C204.193 261.987 205.248 261.404 205.927 260.136C207.33 257.515 206.34 256.988 194.5 254.046C189.55 252.816 185.072 251.402 184.55 250.905C184.027 250.407 182.975 250 182.212 250C181.448 250 177.945 248.668 174.428 247.04C169.679 244.842 168.185 243.682 168.625 242.535C169.198 241.042 173.237 238.806 177.631 237.55C178.803 237.215 180.716 236.114 181.881 235.103C184.821 232.553 184.854 225.083 181.937 222.443C179.958 220.652 179.676 220.646 175.053 222.288C172.401 223.229 169.99 224 169.696 224C169.401 224 170.519 221.279 172.181 217.953C175.7 210.912 176.878 204.661 174.916 203.448C174.012 202.889 171.539 204.872 166.969 209.818C163.32 213.768 160.005 217 159.603 217C158.325 217 160.039 181.071 162.035 166C166.488 132.388 168.994 99.7212 168.998 75.2502C168.999 60.9412 168.719 57.0002 167.7 57.0002C166.985 57.0002 165.93 57.4702 165.356 58.0442ZM101.462 64.0612C98.733 66.8452 94.813 70.0782 92.75 71.2462C88.591 73.6002 88.314 74.1852 90.5 76.0002C91.325 76.6852 92 78.0742 92 79.0872C92 80.9852 94.747 83.0002 97.335 83.0002C98.28 83.0002 99.239 81.1352 100.034 77.7502C101.551 71.2972 103.463 67.3182 106.723 63.8312C108.943 61.4572 109.162 59.0002 107.153 59.0002C106.753 59.0002 104.192 61.2782 101.462 64.0612ZM62.323 62.6292C60.655 65.1762 60.673 65.3172 62.911 67.1292C64.182 68.1582 66.522 69.0002 68.111 69.0002C70.468 69.0002 71 68.5722 71 66.6742C71 64.2852 67.282 60.0002 65.209 60.0002C64.569 60.0002 63.271 61.1832 62.323 62.6292ZM121.93 63.5842C119.019 67.0922 125.669 71.3832 130.561 69.1542C132.795 68.1362 133.006 67.7122 131.925 66.4092C130.556 64.7602 125.703 62.0002 124.172 62.0002C123.662 62.0002 122.653 62.7132 121.93 63.5842ZM41.75 63.6892C37.929 64.6882 41.528 68.0002 46.434 68.0002C49.506 68.0002 49.896 65.5502 47.066 64.0352C45.054 62.9582 44.648 62.9322 41.75 63.6892ZM108.487 67.6162C106.198 70.6302 103.191 78.4682 103.078 81.7182C103.012 83.6042 103.337 83.8132 105.25 83.1152C109.385 81.6062 116.184 68.7242 114.383 65.8102C113.369 64.1692 110.419 65.0732 108.487 67.6162ZM116.098 74.1492C114.557 78.5692 114.68 79.0002 117.477 79.0002C119.025 79.0002 120.577 78.0492 121.617 76.4622C123.185 74.0682 123.173 73.8442 121.39 72.4942C118.516 70.3192 117.301 70.6992 116.098 74.1492ZM47.218 74.3162C42.489 76.4262 39.384 85.0002 43.348 85.0002C45.191 85.0002 53 77.4092 53 75.6182C53 73.7562 49.991 73.0792 47.218 74.3162ZM73.559 76.5322C72.093 77.6412 71.985 78.0002 73.118 78.0002C73.943 78.0002 75.491 77.3392 76.559 76.5322C78.025 75.4232 78.133 75.0642 77 75.0642C76.175 75.0642 74.626 75.7242 73.559 76.5322ZM136.975 77.5652C135.586 81.2182 135.71 81.8012 138.454 84.5452C140.594 86.6852 141.234 86.8502 143.454 85.8392C146.829 84.3012 146.785 80.6322 143.354 77.4522C139.973 74.3192 138.198 74.3502 136.975 77.5652ZM84.2 77.2002C82.066 79.3342 82.855 81.0002 86 81.0002C89.311 81.0002 89.472 80.7502 87.965 77.9342C86.767 75.6972 85.877 75.5232 84.2 77.2002ZM126.75 77.6892C124.52 78.2722 124.47 81.5822 126.678 82.4302C128.802 83.2452 131.471 80.6692 130.668 78.5782C130.048 76.9622 129.773 76.8992 126.75 77.6892ZM56.615 86.9382C54.651 92.9432 54.469 98.3402 56.25 97.7592C58.101 97.1572 59.68 93.1742 60.416 87.2502C61.294 80.1892 58.887 79.9912 56.615 86.9382ZM109.25 86.0462C104.893 89.2522 103.938 91.8742 106.387 93.9062C107.447 94.7862 109.039 94.6382 113.137 93.2792C118.431 91.5232 118.5 91.4482 118.5 87.5002C118.5 83.9782 118.202 83.4652 116 83.2092C114.431 83.0262 111.917 84.0832 109.25 86.0462ZM79.231 87.8512C78.441 89.8932 80.945 90.9682 86.527 90.9852C91.598 91.0002 96.575 88.7402 95.456 86.9292C94.527 85.4252 79.847 86.2592 79.231 87.8512ZM92.567 95.9462C89.381 98.0472 87.091 101.483 87.035 104.25C86.975 107.229 89.565 106.196 93.873 101.522C99.915 94.9672 99.132 91.6192 92.567 95.9462ZM62.183 100.056C58.947 101.354 59.44 106.35 62.852 106.833C68.897 107.689 73.405 103.231 69.431 100.326C67.352 98.8062 65.475 98.7362 62.183 100.056ZM38.25 105.22C35.585 106.506 35.252 109.009 37.75 108.978C39.74 108.953 48 105.384 48 104.549C48 103.584 40.584 104.095 38.25 105.22ZM51.659 112.777C50.767 114.825 49.83 118.406 49.576 120.736C49.134 124.798 49.188 124.9 50.922 123.236C53.686 120.581 55 117.484 55 113.625C55 108.734 53.576 108.373 51.659 112.777ZM90.702 112.631C90.355 112.979 90.73 114.204 91.535 115.354C93.636 118.353 93.344 122.193 90.72 126.088C86.108 132.931 79.213 133.235 80.299 126.547C80.985 122.317 79.149 118.767 76 118.237C66.356 116.612 62.762 118.451 59.174 126.848C55.916 134.473 55.972 139.575 59.332 141.105C62.615 142.601 69.181 140.658 73.419 136.937C76.407 134.313 77.113 134.095 79.333 135.106C82.559 136.576 86.035 135.683 89.967 132.375C96.282 127.06 99.037 117.153 95.171 113.655C93.25 111.917 91.758 111.575 90.702 112.631ZM68.27 121.785C65.442 122.227 62.335 126.149 60.828 131.178C59.858 134.419 59.912 135.34 61.145 136.574C62.462 137.89 63.17 137.651 67.313 134.487C76.465 127.499 76.998 120.421 68.27 121.785ZM167.335 215.191C164.482 218.291 161.008 224.169 161.004 225.905C160.998 228.033 164.716 224.341 167.691 219.264C170.602 214.297 170.39 211.871 167.335 215.191ZM170.352 229.027C164.779 231.91 158.287 237.621 159.361 238.695C160.466 239.8 167.828 237.717 173.5 234.696C178.333 232.122 179.562 230.965 179.816 228.75C180.242 225.051 177.904 225.12 170.352 229.027ZM151.02 240.476C150.231 241.426 150.155 242 150.819 242C152.027 242 153.436 240.103 152.743 239.409C152.491 239.158 151.716 239.638 151.02 240.476ZM125 260C125 260.55 125.45 261 126 261C126.55 261 127 260.55 127 260C127 259.45 126.55 259 126 259C125.45 259 125 259.45 125 260ZM134.006 260.794L131.805 262.577L133.508 278.538C134.446 287.317 135.352 294.65 135.524 294.834C136.008 295.354 136.879 285.694 137.551 272.359C137.929 264.847 137.79 259.988 137.185 259.615C136.648 259.282 135.217 259.813 134.006 260.794Z" fill="black"/>
</g>
<defs>
<clipPath id="clip0_82_15451">
<rect width="207" height="307" fill="white"/>
</clipPath>
</defs>
</svg>
