<svg width="1021" height="1275" viewBox="0 0 1021 1275" fill="none" xmlns="http://www.w3.org/2000/svg">
<path fill-rule="evenodd" clip-rule="evenodd" d="M772.408 0.677045C753.504 1.76533 736.546 5.40184 723.686 11.1266C719.254 13.0998 712.522 15.6452 708.727 16.784C699.95 19.4178 680.783 28.4312 673.859 33.1827C670.933 35.191 668.222 36.8332 667.835 36.8332C666.102 36.8332 644.192 50.2097 635.925 56.3145C627.174 62.7755 615.051 74.9136 611.95 80.3157C611.143 81.7224 608.351 86.4584 605.747 90.841C601.424 98.1112 601.096 99.4393 601.996 106.036C603.147 114.478 603.149 114.762 602.036 120.278C601.238 124.226 601.318 124.323 603.323 121.842C604.499 120.388 605.853 116.285 606.333 112.726C607.802 101.823 609.936 96.8589 616.015 90.2043C619.224 86.6898 623.93 81.1193 626.472 77.825C629.013 74.5293 633.711 70.0205 636.911 67.8046C640.11 65.5888 644.243 62.4473 646.096 60.8233C647.95 59.1993 650.044 57.8698 650.751 57.8698C651.457 57.8698 654.787 55.9765 658.149 53.6625C661.511 51.3484 664.957 49.4551 665.806 49.4551C666.654 49.4551 667.713 48.5085 668.156 47.3515C668.6 46.1945 669.615 45.2478 670.41 45.2478C671.207 45.2478 674.975 43.3293 678.784 40.9844C692.992 32.2402 740.491 15.3199 757.767 12.8488C770.088 11.0873 816.219 12.0999 823.483 14.2919C825.849 15.0057 835.356 17.331 844.609 19.4585C853.862 21.586 866.636 25.1033 872.995 27.2742C879.356 29.4466 885.358 31.2235 886.335 31.2235C889.161 31.2235 898.802 36.801 904.689 41.8427C909.72 46.1496 922.62 66.3909 930.445 82.2539C933.445 88.3377 938.228 101.275 943.351 117.163C947.902 131.28 946.407 149.467 938.945 170.766C932.151 190.153 925.064 200.969 910.078 214.815C902.907 221.441 896.283 227.179 895.358 227.564C894.434 227.95 891.102 229.943 887.953 231.992C879.739 237.339 856.298 248.796 843.207 253.86C817.551 263.787 797.6 270.987 785.727 274.605C778.787 276.72 770.27 279.568 766.8 280.936C763.33 282.303 755.76 285.133 749.977 287.224C744.194 289.314 735.046 293.051 729.648 295.528C724.251 298.006 715.734 301.774 710.722 303.903C705.71 306.032 693.742 311.657 684.124 316.403C668.399 324.166 665.457 326.233 654.908 336.954C639.265 352.851 634.572 361.245 631.384 379.027C629.828 387.706 630.366 409.105 632.354 417.594C634.265 425.761 638.069 433.823 641.257 436.47C645.101 439.662 645.449 436.819 642.324 427.744C636.86 411.872 639.64 377.963 647.762 361.433C652.028 352.749 671.131 333.61 679.205 329.93C682.567 328.398 685.665 326.582 686.09 325.893C686.515 325.206 688.477 324.239 690.45 323.742C692.424 323.247 700.474 319.796 708.339 316.071C735.795 303.073 742.353 300.139 754.884 295.249C761.823 292.541 769.709 289.82 772.408 289.203C780.487 287.354 818.698 274.148 828.486 269.818C839.194 265.084 845.331 262.883 853.02 261.018C856.105 260.269 861.467 258.023 864.937 256.025C868.407 254.028 876.293 249.761 882.461 246.544C888.63 243.325 895.254 239.789 897.182 238.687C903.467 235.088 917.381 223.788 923.215 217.543C929.315 211.011 939.24 197.451 939.24 195.648C939.24 195.048 940.853 192.182 942.824 189.281C944.795 186.379 948.688 176.608 951.474 167.568C956.218 152.177 956.527 150.036 956.332 133.883C956.134 117.36 955.914 116.151 951.079 105.133C948.303 98.8069 945.13 90.273 944.03 86.1695C941.463 76.5979 921.071 42.356 912.769 33.6749C909.262 30.009 902.586 25.1551 897.933 22.8874C888.539 18.3099 864.345 10.1813 860.124 10.1856C858.632 10.1856 853.901 8.98647 849.609 7.52093C845.317 6.05398 838.133 4.51691 833.647 4.106C829.159 3.69368 824.699 2.70216 823.734 1.89997C821.471 0.0207075 794.834 -0.613196 772.408 0.677045ZM591.667 152.651C591.734 154.284 592.066 154.617 592.514 153.499C592.919 152.486 592.868 151.276 592.403 150.811C591.937 150.345 591.607 151.172 591.667 152.651ZM590.154 165.94C590.154 166.756 590.785 167.035 591.556 166.558C592.327 166.082 592.958 165.414 592.958 165.073C592.958 164.733 592.327 164.455 591.556 164.455C590.785 164.455 590.154 165.124 590.154 165.94ZM589.762 170.53C588.2 174.503 588.455 176.533 590.286 174.701C591.128 173.858 591.584 171.996 591.295 170.564C590.791 168.053 590.736 168.052 589.762 170.53ZM574.065 197.061C562.809 219.615 545.749 232.654 494.068 258.201C483.245 263.551 473.547 268.945 472.518 270.186C471.487 271.427 469.822 272.442 468.815 272.442C467.808 272.442 465.836 273.866 464.431 275.605C463.025 277.344 460.088 279.917 457.905 281.323C450.206 286.277 442.53 294.228 435.767 304.252C432.007 309.827 428.929 314.841 428.929 315.393C428.929 315.946 427.86 317.581 426.552 319.026C425.245 320.472 423.389 325.885 422.429 331.057C421.468 336.229 419.991 343.236 419.144 346.628C418.059 350.984 418.024 356.548 419.026 365.561C419.807 372.582 420.073 379.745 419.618 381.48C419.148 383.268 420.069 387.826 421.742 391.999C425.977 402.563 426.186 406.479 422.486 405.972C420.871 405.752 413.931 406.811 407.065 408.327C400.199 409.843 388.288 412.145 380.599 413.442C372.907 414.739 365.03 416.402 363.094 417.139C361.158 417.875 355.78 419.328 351.142 420.366C327.202 425.73 286.771 438.233 274.715 444.001C264.347 448.96 250.158 459.93 247.342 465.161C245.326 468.904 244.277 469.702 242.886 468.548C241.887 467.717 241.068 466.168 241.068 465.106C241.068 464.043 240.107 463.174 238.935 463.174C235.199 463.174 233.291 456.727 235.344 451.045C238.23 443.06 245 434.049 252.048 428.811C255.648 426.135 259.457 423.211 260.513 422.311C263.352 419.893 288.246 409.839 297.146 407.515C301.387 406.409 309.588 404.55 315.371 403.386C336.544 399.126 340.039 398.364 346.915 396.523C350.771 395.491 360.234 393.624 367.945 392.376C384.821 389.642 395.944 386.518 398.116 383.9C398.999 382.836 399.302 380.649 398.79 379.036C397.962 376.426 397.035 376.176 390.31 376.753C386.157 377.109 382.117 377.799 381.33 378.284C380.545 378.771 376.581 379.761 372.521 380.485C368.462 381.208 361.04 382.752 356.028 383.915C351.016 385.078 340.698 387.298 333.098 388.849C325.499 390.398 318.864 391.924 318.355 392.24C317.844 392.555 310.422 394.391 301.861 396.321C293.299 398.249 283.407 401.144 279.879 402.751C276.352 404.358 273.079 405.674 272.603 405.674C272.128 405.674 266.574 408.131 260.259 411.133C247.358 417.269 239.017 424.924 233.35 435.826C231.345 439.683 228.569 443.812 227.18 444.999C221.239 450.087 220.127 460.576 225.093 464.698C226.168 465.591 227.048 466.974 227.048 467.771C227.048 470.33 234.08 478.54 238.019 480.576C245.154 484.268 276.75 490.985 297.847 493.295C314.529 495.121 327.136 495.438 358.832 494.827C380.807 494.402 417.398 493.702 440.145 493.273C462.892 492.842 493.628 492.253 508.45 491.964C523.27 491.675 536.02 491.053 536.783 490.581C537.546 490.11 559.803 488.183 586.243 486.301C634.335 482.878 634.848 482.805 671.467 474.124C674.937 473.302 681.877 471.818 686.889 470.827C709.56 466.344 722.12 460.402 731.3 449.813C739.222 440.676 741.778 433.701 740.078 425.869C739.424 422.861 738.322 417.761 737.63 414.536C736.936 411.31 734.798 406.804 732.879 404.522C726.962 397.488 715.046 387.518 711.75 386.842C710.028 386.49 706.118 385.796 703.06 385.299C700.003 384.803 695.902 383.581 693.948 382.584C691.993 381.587 682.98 380.316 673.921 379.761C657.888 378.778 657.448 378.828 657.448 381.644C657.448 385.563 660.521 386.94 673.202 388.704C688.109 390.778 704.727 395.398 711.504 399.352C719.88 404.239 728.507 414.259 730.404 421.301C731.873 426.761 731.707 427.996 728.739 433.679C726.926 437.151 723.328 442.21 720.745 444.921C716.328 449.556 716.094 449.64 716.832 446.333C717.716 442.363 716.87 440.711 712.825 438.503C699.063 430.992 692.986 427.588 691.796 426.726C688.818 424.569 670.525 418.43 665.86 418.022C661.728 417.662 660.884 418.077 660.518 420.645C660.055 423.896 663.67 426.131 674.972 429.584C682.71 431.947 689.775 435.642 700.157 442.753C705.022 446.083 709.861 449.125 710.913 449.512C714.087 450.679 708.971 454.919 702.798 456.237C699.832 456.871 692.987 458.673 687.59 460.241C682.192 461.809 675.979 463.11 673.781 463.133C670.333 463.168 651.899 467.563 638.521 471.539C636.208 472.226 627.691 473.191 619.595 473.682C611.499 474.173 602.982 474.776 600.669 475.021C598.356 475.267 589.839 475.875 581.742 476.375C561.95 477.596 536.454 480.123 535.004 481.007C534.358 481.401 514.17 481.998 490.142 482.335C466.113 482.67 440.145 483.178 432.434 483.46C396.794 484.768 309.421 484.411 297.063 482.906C274.712 480.185 265.188 478.432 253.918 474.967C250.406 473.885 260.552 463.387 270.272 458.043C275.414 455.218 280.569 452.103 281.729 451.122C283.436 449.679 316.196 439.789 339.205 433.772C341.903 433.065 347.266 431.565 351.121 430.438C354.976 429.31 362.862 427.637 368.645 426.717C374.429 425.799 383.665 423.893 389.169 422.483C394.673 421.072 404.447 419.458 410.888 418.896C420.448 418.061 423.446 417.205 427.218 414.229L431.839 410.582L431.016 392.351C430.563 382.323 429.48 370.192 428.61 365.393C426.428 353.352 429.65 335.207 436.276 322.229C442.998 309.06 452.094 298.749 466.782 287.65C480.638 277.181 487.178 273.574 526.365 254.79C557.221 240 578.334 219.073 582.837 198.815C584.356 191.99 583.723 189.699 580.325 189.699C578.608 189.699 576.506 192.17 574.065 197.061ZM502.532 339.984C497.135 340.595 488.302 341.685 482.905 342.404C477.507 343.124 466.53 343.802 458.512 343.912C442.32 344.133 435.939 346.195 435.939 351.206C435.939 354.45 434.247 354.465 456.969 351.017C461.981 350.255 473.341 349.62 482.214 349.604C491.085 349.589 500.407 348.984 502.926 348.262C505.445 347.54 519.951 346.809 535.161 346.64C564.882 346.309 574.733 345.633 574.733 343.924C574.733 340.218 524.595 337.482 502.532 339.984ZM391.077 360.095C389.149 361.197 386.132 362.121 384.373 362.149C382.613 362.176 378.828 363.208 375.961 364.441C373.094 365.675 367.279 367.196 363.038 367.825C358.797 368.453 351.542 369.899 346.915 371.038C342.289 372.177 332.826 374.499 325.886 376.199C318.946 377.898 307.59 380.795 300.651 382.633C293.711 384.47 285.979 386.315 283.468 386.73C280.958 387.145 275.564 388.962 271.482 390.769C267.401 392.574 261.604 394.862 258.599 395.854C249.538 398.845 234.058 410.511 219.021 425.678C215.199 429.532 194.803 456.769 194.803 458.018C194.803 459.502 190.487 469.291 186.106 477.746C182.165 485.347 178.148 499.818 176.53 512.235C174.862 525.027 177.226 545.917 180.339 545.917C181.403 545.917 182.545 546.707 182.877 547.67C183.862 550.535 187.923 616.258 187.491 622.35C187.011 629.105 185.964 630.014 178.618 630.042C172.702 630.065 149.171 635.714 142.105 638.808C135.496 641.702 118.438 651.563 117.93 652.783C117.672 653.4 114.833 653.909 111.621 653.913C101.892 653.926 94.9744 656.628 88.7988 662.831C83.5751 668.079 82.933 669.504 82.054 677.818C81.2605 685.311 81.6545 688.804 84.1892 696.751C90.4784 716.469 101.976 722.701 132.268 722.809C144.128 722.851 146.842 723.292 149.861 725.667C153.167 728.269 154.703 728.403 170.613 727.485C183.297 726.753 187.794 726.921 187.794 728.123C187.794 729.021 189.749 733.939 192.14 739.054C196.124 747.578 198.753 758.439 199.598 769.872C199.78 772.333 200.687 775.262 201.614 776.378C203.1 778.169 204.538 790.282 206.64 818.691C206.982 823.319 207.969 829.945 208.833 833.416C209.698 836.887 211.269 843.198 212.325 847.441C219.796 877.449 240.522 920.499 254.747 935.552C255.715 936.577 257.143 938.602 257.918 940.052C258.695 941.502 263.416 944.976 268.411 947.77C273.407 950.565 277.858 953.44 278.302 954.159C279.309 955.789 289.577 961.091 293.005 961.752C294.401 962.021 296.818 963.515 298.374 965.071C302.539 969.238 307.813 971.542 319.577 974.335C325.36 975.708 333.343 977.696 337.317 978.752C345.795 981.004 370.43 981.317 374.346 979.221C377.617 977.469 377.918 972.889 374.839 971.706C373.62 971.238 367.579 970.855 361.414 970.855C344.536 970.855 310.006 962.483 304.606 957.08C303.338 955.814 299.986 953.74 297.154 952.471C290.4 949.446 271.298 934.742 264.199 927.103C255.93 918.205 248.966 908.006 245.48 899.686C243.783 895.64 240.835 889.392 238.928 885.803C237.02 882.216 235.46 878.461 235.46 877.461C235.46 876.461 233.329 871.349 230.723 866.1C228.118 860.851 225.548 853.506 225.011 849.779C224.476 846.05 223.046 840.37 221.834 837.157C219.186 830.136 217.701 820.109 215.985 797.654C215.279 788.398 214.243 777.513 213.683 773.462C212.558 765.306 213.458 764.527 218.983 768.876C220.925 770.404 224.006 772.305 225.831 773.101C227.658 773.897 231.044 775.684 233.357 777.069C247.456 785.518 261.869 788.705 285.918 788.691C316.762 788.675 327.299 787.321 346.084 780.963C361.215 775.842 371.699 764.243 380.2 743.216C383.886 734.103 384.067 732.556 384.067 710.203C384.067 674.443 381.82 668.649 362.942 655.756C353.395 649.236 334.624 642.736 317.202 639.918C313.198 639.272 309.312 638.364 308.565 637.903C306.2 636.44 270.739 636.844 244.639 638.629C222.199 640.165 218.946 640.706 214.651 643.622C212.001 645.421 209.021 646.893 208.028 646.893C207.035 646.893 204.757 648.765 202.966 651.055L199.71 655.216L199.845 649.302C199.919 646.048 200.725 641.566 201.635 639.34C202.978 636.056 202.895 634.691 201.193 632.095C199.668 629.766 198.691 621.364 197.602 601.217C196.779 585.992 195.722 572.916 195.253 572.157C193.992 570.115 189.299 545.886 189.221 541.009C189.183 538.695 188.531 535.855 187.773 534.698C186.634 532.964 186.216 533.211 185.399 536.1C184.496 539.288 184.32 539.096 183.445 533.997C182.84 530.476 183.438 523.424 185.046 515.064C187.886 500.299 189.411 495.244 194.151 484.911C195.919 481.055 199.888 472.411 202.968 465.704C206.05 458.996 210.993 450.894 213.954 447.701C216.915 444.507 219.968 440.728 220.739 439.303C221.511 437.876 227.86 431.417 234.849 424.947C243.59 416.855 251.03 411.434 258.682 407.58C273.959 399.883 295.257 392.972 313.969 389.637C319.752 388.606 332.055 386.075 341.307 384.01C364.52 378.833 375.623 376.476 380.562 375.68C403.132 372.039 412.346 366.386 405.175 360.577C401.387 357.51 395.925 357.322 391.077 360.095ZM662.004 361.627C661.041 362.069 660.252 363.567 660.252 364.954C660.252 368.108 669.296 370.613 680.688 370.613C685.076 370.613 691.263 371.292 694.437 372.12C697.611 372.951 703.993 374.607 708.619 375.802C725.518 380.165 740.755 386.045 745.922 390.199C748.833 392.54 751.624 394.454 752.125 394.454C752.625 394.454 756.524 397.436 760.789 401.081C767.783 407.059 782.222 426.055 782.222 429.28C782.222 429.992 783.175 431.366 784.341 432.334C792.94 439.472 798.709 472.731 795.107 494.397C792.764 508.497 793.827 514.783 799.746 521.819C803.694 526.513 813.431 529.764 820.352 528.701C825.529 527.906 845.106 522.561 860.03 517.87C881.34 511.172 898.73 510.056 917.091 514.208C921.947 515.306 930.229 517.187 935.492 518.389C950.731 521.865 961.614 527.766 971.236 537.769C978.644 545.47 986.907 556.06 986.907 557.852C986.907 558.176 988.764 561.372 991.036 564.954C999.555 578.393 1009.35 612.728 1009.62 630.063C1009.82 643.294 1006.79 677.957 1004.48 688.925C1002.42 698.697 994.72 716.428 988.321 726.13C986.795 728.444 984.975 731.616 984.277 733.18C981.979 738.328 971.853 747.791 959.569 756.27C955.713 758.93 951.266 762.222 949.688 763.582C945.429 767.252 931.113 771.631 923.118 771.708C919.263 771.746 913.585 772.399 910.5 773.161C907.416 773.921 899.215 774.447 892.275 774.329C885.335 774.211 877.449 774.168 874.751 774.235C872.052 774.301 867.284 773.712 864.155 772.925C856.621 771.032 833.832 773.555 826.358 777.11C823.288 778.571 818.252 780.556 815.168 781.521C806.389 784.267 802.791 786.504 799.488 791.272C796.182 796.043 795.312 801.585 794.084 825.703C793.21 842.86 791.613 856.51 789.488 864.971C788.714 868.057 787.344 874.999 786.444 880.398C783.645 897.203 780.736 909.705 778.776 913.355C777.741 915.284 775.124 920.226 772.962 924.339C764.836 939.791 744.004 954.135 719.134 961.404C698.107 967.548 668.519 974.35 653.943 976.392C648.545 977.148 639.713 978.395 634.316 979.163C614.928 981.923 598.916 983.477 589.87 983.477C581.863 983.477 580.396 983.888 578.616 986.632C577.492 988.367 576.84 990.578 577.171 991.541C577.985 993.922 593.346 993.789 607.679 991.277C613.847 990.196 630.565 987.962 644.83 986.314C659.095 984.665 674.236 982.449 678.477 981.39C687.265 979.195 696.867 977.005 703.011 975.794C705.325 975.339 716.291 972.05 727.38 968.484C749.807 961.274 758.505 956.245 768.368 944.785C771.746 940.861 776.51 935.336 778.954 932.507C781.397 929.68 784.458 924.37 785.753 920.711C787.049 917.051 788.99 911.848 790.068 909.148C791.145 906.448 792.973 898.244 794.13 890.916C795.287 883.589 797.188 872.86 798.353 867.075C799.518 861.29 801.123 849.615 801.918 841.13C804.225 816.518 807.394 797.945 809.725 795.368C814.474 790.119 846.619 785.446 863.535 787.547C874.113 788.86 913.324 787.669 926.623 785.63C938.636 783.788 953.605 778.03 958.662 773.304C960.894 771.218 967.373 765.805 973.061 761.274C988.6 748.892 991.582 744.923 1003.69 720.52C1013.46 700.809 1015.07 696.462 1016.94 684.758C1019.83 666.551 1022.02 624.039 1020.51 615.338C1015.31 585.424 1003.65 555.663 993.345 546.024C991.345 544.153 989.709 541.944 989.707 541.115C989.7 538.239 970.449 519.916 963.407 516.082C939.817 503.237 891.096 495.481 874.05 501.857C870.965 503.011 867.18 504.237 865.638 504.582C864.096 504.927 861.257 505.777 859.329 506.47C840.679 513.173 819.344 517.044 813.082 514.859C808.372 513.217 807.865 510.298 807.587 483.265C807.491 473.876 806.763 463.147 805.971 459.423C805.177 455.701 804.478 451.709 804.417 450.552C804.063 443.917 786.562 411.283 783.357 411.283C782.732 411.283 782.222 410.314 782.222 409.132C782.222 406.038 764.153 388.404 754.945 382.512C745.214 376.286 727.041 367.808 723.422 367.808C721.932 367.808 715.538 366.571 709.212 365.061C698.002 362.382 665.508 360.019 662.004 361.627ZM488.074 398.882C458.177 399.9 454.845 400.38 452.942 403.937C451.554 406.533 457.828 406.727 509.542 405.677C518.795 405.49 532.202 405.787 539.333 406.338C548.606 407.057 552.301 406.891 552.301 405.762C552.301 404.894 551.513 403.953 550.549 403.672C549.586 403.392 545.071 402.06 540.518 400.713C530.866 397.858 524.6 397.639 488.074 398.882ZM317.363 530.101C311.135 531.05 302.389 533.499 297.931 535.541C291.077 538.681 289.407 540.198 287.118 545.373C285.005 550.153 284.748 552.124 285.95 554.368C286.795 555.949 287.081 558.524 286.585 560.089C285.377 563.895 291.593 573.197 297.325 576.162C304.638 579.945 317.191 581.526 352.746 583.142C372.229 584.028 374.776 583.857 383.358 581.083C392.808 578.03 399.488 572.803 399.488 568.463C399.488 567.205 400.463 564.784 401.655 563.083C403.295 560.738 403.459 559.316 402.327 557.203C400.118 553.072 384.3 540.665 377.057 537.382C373.587 535.808 368.225 533.316 365.141 531.842C358.072 528.465 333.863 527.583 317.363 530.101ZM569.826 534.176C557.441 536.629 552.045 538.226 550.71 539.835C549.855 540.866 548.08 541.71 546.766 541.71C545.453 541.71 542.973 543.206 541.255 545.035C539.538 546.864 535.941 549.543 533.26 550.986C528.164 553.732 522.86 562.493 522.86 568.167C522.86 573.255 526.611 579.03 531.969 582.193C539.2 586.46 552.328 588.203 581.705 588.798C605.491 589.279 608.58 589.053 619.557 586.03C631.837 582.648 645.129 576.636 642.364 575.715C641.265 575.349 641.394 573.272 642.804 568.621C643.902 565.004 644.806 561.888 644.815 561.696C644.83 561.341 635.748 552.425 629.409 546.572C625.562 543.021 616.291 538.518 611.884 538.061C610.342 537.901 604.441 537.382 598.771 536.909C593.1 536.435 585.844 535.445 582.648 534.706C576.632 533.316 574.59 533.232 569.826 534.176ZM320.041 550.788C315.286 552.619 309.79 555.169 307.829 556.454C303.542 559.264 301.699 564.033 304.285 565.631C309.312 568.739 350.42 572.526 350.42 569.881C350.42 569.133 349.789 568.132 349.018 567.655C348.247 567.178 347.612 565.09 347.608 563.014C347.602 560.939 346.656 557.433 345.505 555.224C344.352 553.014 343.41 550.332 343.41 549.263C343.41 546.097 329.942 546.975 320.041 550.788ZM560.012 550.822C559.241 551.084 556.347 551.674 553.581 552.134C547.038 553.223 536.88 561.818 536.88 566.267C536.88 568.388 538.506 570.728 541.436 572.819C545.292 575.57 547.933 576.113 558.61 576.35C565.55 576.504 573.967 577.025 577.314 577.507C583.206 578.356 583.366 578.28 582.305 575.123C581.703 573.329 581.14 568.487 581.054 564.361C580.94 558.874 580.259 556.501 578.517 555.525C577.207 554.793 576.135 553.277 576.135 552.158C576.135 549.697 568.915 549.388 564.658 551.667C562.562 552.788 562.037 552.788 562.729 551.667C563.666 550.153 562.789 549.879 560.012 550.822ZM845.31 553.166C839.527 553.812 833.7 554.969 832.361 555.738C831.022 556.507 828.952 557.137 827.76 557.137C826.568 557.137 825.231 558.083 824.788 559.24C824.343 560.397 823.258 561.344 822.378 561.344C821.496 561.344 818.161 563.734 814.967 566.654C811.773 569.574 808.497 571.742 807.685 571.471C804.422 570.383 800.542 574.151 799.689 579.242C799.205 582.125 798.13 586.693 797.3 589.393C796.47 592.092 795.305 599.981 794.71 606.923C792.941 627.582 792.178 634.443 790.472 645.095C789.581 650.662 789.173 657.289 789.567 659.82C789.96 662.352 789.841 665.636 789.303 667.119C788.765 668.601 788.774 672.703 789.324 676.234C789.875 679.766 790.753 688.335 791.277 695.277C792.899 716.791 800.856 734.528 810.75 738.68C832.162 747.666 854.456 749.294 880.165 743.753C888.153 742.031 897.511 739.413 900.959 737.934C904.407 736.455 908.28 735.242 909.565 735.238C910.851 735.232 913.71 734.285 915.918 733.134C918.127 731.981 921.196 731.039 922.739 731.039C926.338 731.039 944.402 719.067 946.379 715.372C947.206 713.825 950.057 710.154 952.712 707.214C958.988 700.264 963.079 692.421 968.081 677.746C971.609 667.398 972.142 663.791 972.116 650.399C972.099 641.914 971.3 628.667 970.34 620.959C968.819 608.749 967.88 605.765 963.048 597.765C950.295 576.65 931.155 563.068 910.5 560.473C901.564 559.351 872.442 554.179 868.442 553.004C863.501 551.552 859.524 551.58 845.31 553.166ZM835.846 566.821C832.57 568.36 829.888 570.283 829.888 571.092C829.888 571.902 828.887 572.564 827.663 572.564C826.441 572.564 822.051 576.035 817.911 580.277C813.771 584.519 809.753 587.99 808.984 587.99C807.207 587.99 806.554 591.968 803.798 619.545C799.218 665.368 800.024 693.535 806.436 711.83C810.21 722.595 818.709 730.158 829.012 731.917C840.748 733.919 879.345 733.03 884.057 730.647C886.263 729.531 888.857 728.9 889.819 729.244C890.782 729.587 893.621 728.641 896.128 727.141C898.636 725.641 906.049 722.683 912.603 720.568C926.178 716.187 932.627 712.628 938.028 706.538C940.1 704.202 944.006 699.825 946.706 696.812C950.023 693.113 953.128 686.971 956.28 677.879C960.425 665.918 960.941 662.786 960.919 649.697C960.863 615.944 956.961 604.345 940.358 588.568C926.3 575.211 913.435 570.592 881.76 567.533C875.977 566.975 869.984 566.342 868.442 566.128C866.9 565.913 860.275 565.351 853.721 564.878C843.567 564.146 840.924 564.434 835.846 566.821ZM462.576 593.05C462.576 596.338 462.968 596.612 466.432 595.757C473.997 593.888 474.186 589.393 466.7 589.393C463.19 589.393 462.576 589.937 462.576 593.05ZM529.855 612.182C528.327 614.69 527.055 617.371 527.028 618.143C526.957 620.187 515.199 628.728 509.889 630.592C507.384 631.47 504.705 632.588 503.934 633.074C501.324 634.722 485.748 637.562 478.73 637.67C470.161 637.801 468.352 641.249 475.037 644.708C483.366 649.016 498.123 646.639 515.15 638.242C525.685 633.048 531.369 627.62 535.491 618.819C538.149 613.14 538.4 611.56 536.923 609.78C534.31 606.631 532.959 607.09 529.855 612.182ZM175.877 642.845C173.564 643.573 168.762 644.393 165.207 644.67C161.651 644.947 156.604 646.114 153.991 647.264C151.378 648.414 146.244 650.431 142.581 651.746C135.011 654.463 134.202 656.035 139.777 657.189C153.133 659.952 156.945 660.331 159.125 659.109C162.8 657.053 173.377 659.097 182.403 663.61L190.578 667.695L193.438 664.058L196.298 660.422L192.046 658.634C188.036 656.947 187.794 656.4 187.794 649.064C187.794 641.481 187.695 641.286 183.938 641.403C181.818 641.469 178.19 642.119 175.877 642.845ZM258.592 648.362C240.532 649.718 226.178 652.118 220.769 654.686C216.199 656.855 206.741 666.19 202.855 672.368C200.12 676.715 195.241 676.368 193.515 671.703C192.807 669.786 192.128 669.392 191.444 670.497C190.267 672.404 181.974 671.498 172.536 668.431C169.156 667.332 166.002 666.856 165.526 667.374C165.051 667.89 165.438 668.591 166.387 668.93C170.707 670.475 179.382 687.107 179.382 693.843C179.382 696.962 173.471 706.821 168.257 712.398C166.665 714.102 165.362 715.928 165.362 716.458C165.362 716.986 169.62 716.919 174.825 716.307C194.383 714.009 198.116 715.587 202.709 728.095C205.464 735.597 210.923 743.484 214.229 744.736C215.496 745.217 219.789 748.808 223.769 752.715C230.862 759.679 245.84 768.904 250.056 768.904C251.229 768.904 254.26 769.799 256.792 770.892C270.456 776.792 275.899 777.437 299.274 775.932C311.597 775.138 323.573 774.187 325.886 773.819C334.379 772.468 335.761 772.185 338.854 771.161C340.913 770.479 342.008 768.994 342.008 766.878C342.008 763.523 343.724 761.564 347.999 760.038C350.11 759.284 350.262 759.568 349.001 761.925C348.185 763.449 346.908 764.697 346.165 764.697C345.421 764.697 344.812 765.37 344.812 766.194C344.812 768.443 350.368 766.265 354.524 762.386C357.515 759.592 357.782 758.798 356.084 757.735C354.33 756.637 354.403 756.048 356.601 753.619C358.012 752.06 359.564 750.834 360.05 750.894C362.623 751.216 363.512 750.486 361.839 749.425C360.27 748.432 360.35 747.593 362.295 744.623C363.591 742.644 365.487 741.345 366.508 741.738C369.154 742.753 371.633 734.259 371.553 724.449C371.515 719.975 371.636 712.211 371.82 707.197C372.455 689.804 369.131 677.139 362.536 671.817C359.257 669.172 356.772 668.536 358.099 670.682C359.157 672.394 353.398 681.468 348.061 686.5C345.589 688.83 341.243 690.905 337.036 691.763C325.687 694.08 305.016 697.213 302.754 696.961C301.597 696.832 294.973 697.22 288.033 697.822C279.291 698.582 268.585 698.233 253.174 696.686C234.106 694.772 229.804 693.881 223.032 690.448C218.687 688.245 213.629 684.83 211.792 682.859L208.454 679.276L211.43 672.941C214.965 665.422 219.989 661.65 224.851 662.872C227.239 663.471 228.841 662.979 230.119 661.252C232.907 657.484 239.028 655.307 246.834 655.307C250.703 655.307 255.247 654.558 256.932 653.644C259.7 652.141 291.589 651.77 304.857 653.089C307.17 653.317 314.11 653.909 320.278 654.401L331.494 655.296L322.381 652.361C305.085 646.79 291.148 645.916 258.592 648.362ZM268.519 663.98C253.425 665.472 239.728 669.346 233.15 673.983C229.858 676.304 227.438 678.644 227.77 679.182C229.039 681.235 245.334 684.81 257.999 685.814C280.572 687.604 298.154 686.894 312.894 683.6C320.397 681.924 327.909 680.551 329.584 680.551C331.26 680.551 334.772 678.917 337.389 676.922C343.553 672.218 342.09 670.406 329.723 667.427C310.003 662.677 291.968 661.662 268.519 663.98ZM104.206 665.737C95.6193 669.476 93.2206 678.201 96.8334 692.556C98.0798 697.505 99.7397 699.769 104.895 703.541C113.599 709.911 124.944 711.705 141.944 709.396C153.084 707.884 154.741 707.256 159.087 702.902C161.733 700.251 164.244 696.188 164.664 693.874C165.317 690.291 164.438 688.597 158.737 682.444C155.055 678.471 150.467 674.251 148.539 673.065C142.362 669.264 131.209 666.114 124.389 666.242C120.744 666.311 117.394 665.771 116.946 665.044C115.779 663.157 109.328 663.507 104.206 665.737ZM192.35 689.745C190.26 692.02 190.063 695.483 191.959 696.654C192.707 697.117 193.714 695.919 194.198 693.992C195.365 689.339 194.517 687.388 192.35 689.745ZM194.296 706.496C193.368 708.918 194.564 712.807 196.239 712.807C197.82 712.807 198.676 709.774 197.917 706.847C197.136 703.837 195.381 703.667 194.296 706.496ZM535.467 791.342C529.007 798.002 507.617 809.575 501.767 809.575C500.159 809.575 497.781 810.118 496.481 810.78C495.183 811.443 492.092 812.369 489.612 812.839L485.103 813.693L487.854 809.18C491.48 803.23 491.332 800.919 487.066 796.911L483.517 793.576L427.132 793.325C396.121 793.188 366.017 793.621 360.234 794.287C332.003 797.542 318.9 798.612 303.455 798.924C284.799 799.298 265.959 801.648 256.791 804.742C253.486 805.857 249.512 806.77 247.958 806.77C243.605 806.77 236.88 810.771 236.701 813.468C236.415 817.757 236.961 821.41 238.474 825.288C239.69 828.406 241.113 829.251 246.468 830.037C250.053 830.564 254.562 831.613 256.489 832.369C258.417 833.126 267.565 834.085 276.818 834.502C300.836 835.585 300.449 835.586 318.175 834.23C327.043 833.551 336.402 832.933 338.973 832.855L343.649 832.715L343.911 840.201C344.153 847.114 344.652 848.139 350.451 853.59C356.75 859.514 359.063 860.467 381.263 866.28C398.38 870.762 408.601 872.769 424.724 874.809C433.591 875.931 442.562 877.221 444.661 877.674C457.688 880.491 500.233 880.383 509.542 877.509C513.397 876.32 519.605 874.753 523.336 874.028C527.068 873.303 536.67 870.1 544.675 866.911C556.891 862.043 561.208 859.422 571.538 850.593C578.306 844.808 584.044 839.559 584.287 838.928C585.23 836.472 581.5 832.017 578.539 832.06C574.915 832.115 571.229 834.99 566.011 841.831C560.986 848.42 542.662 857.436 526.365 861.339C523.281 862.078 516.657 863.758 511.645 865.075C484.961 872.08 414.808 865.849 372.857 852.748C363.656 849.874 354.726 840.429 361.208 840.429C362.516 840.429 365.197 838.925 367.166 837.087C372.131 832.456 387.482 830.474 423.322 829.84C463.356 829.132 475.201 828.154 491.316 824.229C510.038 819.671 518.511 816.44 530.057 809.463C545.271 800.267 553.438 787.083 544.93 785.455C542.573 785.004 540.155 786.509 535.467 791.342ZM360.935 804.946C342.707 806.769 323.414 809.051 314.962 810.383C311.749 810.891 308.862 810.574 307.669 809.582C306.452 808.571 304.454 808.366 302.471 809.046C300.698 809.654 296.393 809.973 292.901 809.757C286.787 809.377 267.675 812.489 258.242 815.399C253.547 816.848 252.018 819.392 255.844 819.392C257.032 819.392 260.594 820.715 263.761 822.33C269.201 825.107 271.06 825.229 297.341 824.525C312.643 824.114 325.691 823.452 326.337 823.052C326.984 822.653 334.717 821.935 343.522 821.458C369.125 820.071 405.925 816.795 422.621 814.416C431.103 813.207 440.881 811.906 444.351 811.523C450.042 810.895 464.661 807.829 471.567 805.815C473.917 805.131 473.974 804.88 472.023 803.787C468.86 802.017 381.081 802.932 360.935 804.946ZM502.532 977.922C499.448 978.546 489.669 979.434 480.802 979.892C471.934 980.352 462.36 981.079 459.527 981.507C456.694 981.936 453.164 981.637 451.682 980.845C447.716 978.72 442.949 982.497 442.949 987.764C442.949 990.088 442.184 991.927 441.197 991.973C440.233 992.016 437.236 993.597 434.537 995.483C431.839 997.371 427.156 1000.57 424.132 1002.58C421.109 1004.6 417.955 1006.82 417.122 1007.51C408.392 1014.79 375.254 1034.4 344.111 1050.73C338.714 1053.56 328.397 1059.18 321.185 1063.23C313.972 1067.27 306.717 1071.28 305.063 1072.13C303.407 1072.97 301.106 1074.21 299.95 1074.86C298.793 1075.52 296.901 1076.45 295.744 1076.94C293.642 1077.82 288.427 1081.09 269.614 1093.34C264.109 1096.92 258.431 1100.28 256.997 1100.81C255.561 1101.33 250.916 1104.43 246.676 1107.69C242.435 1110.95 235.495 1115.35 231.254 1117.46C227.013 1119.58 221.02 1123.35 217.936 1125.85C214.851 1128.35 209.684 1131.73 206.451 1133.36C200.344 1136.43 194.54 1140.07 183.26 1147.88C178.325 1151.29 176.037 1154.09 174.342 1158.78C167.038 1179 162.895 1188 158.824 1192.51C153.24 1198.69 145.005 1201.57 139.212 1199.37C129.852 1195.81 126.373 1189.4 118.756 1161.65C113.162 1141.28 113.156 1141.23 113.911 1121.62C114.717 1100.67 116.274 1094.12 122.966 1083.54C126.769 1077.52 136.298 1071.83 142.56 1071.83C143.998 1071.83 145.783 1071.22 146.526 1070.48C147.393 1069.61 150.13 1069.79 154.166 1070.98C160.076 1072.72 160.503 1073.19 161.249 1078.63C161.685 1081.82 163.465 1085.94 165.204 1087.79C167.275 1089.99 168.735 1093.88 169.435 1099.04C170.541 1107.18 174.95 1113.9 179.194 1113.9C181.827 1113.9 209.402 1100.56 215.102 1096.52C217.4 1094.9 220.393 1092.94 221.754 1092.17C223.116 1091.39 228.492 1087.85 233.701 1084.28C253.948 1070.43 284.22 1050.92 292.239 1046.55C296.866 1044.03 303.174 1040.28 306.259 1038.2C319.916 1029.02 336.834 1018.29 339.645 1017.01C344.247 1014.93 351.397 1010.26 362.693 1001.95C371.051 995.796 372.851 993.785 372.851 990.594C372.851 985.105 368.648 981.61 364.119 983.333C362.184 984.067 359.404 986.195 357.937 988.059C356.472 989.921 353.709 992.28 351.795 993.298C349.882 994.318 346.109 996.996 343.41 999.252C338.349 1003.48 324.192 1012.5 295.112 1030.01C285.897 1035.56 275.186 1042.2 271.311 1044.75C267.434 1047.3 263.461 1049.39 262.48 1049.39C261.498 1049.39 260.695 1049.92 260.695 1050.57C260.695 1051.22 259.276 1052.49 257.541 1053.39C254.158 1055.15 252.876 1055.98 236.16 1067.27C230.163 1071.32 225.015 1074.64 224.718 1074.64C224.422 1074.64 219.438 1077.78 213.643 1081.62C207.849 1085.45 199.232 1090.49 194.498 1092.8C184.685 1097.58 182.829 1097.03 181.304 1088.87C179.767 1080.65 177.678 1077.04 170.97 1070.97C161.618 1062.52 146.045 1058.34 137.039 1061.87C135.268 1062.57 131.19 1063.84 127.976 1064.7C117.358 1067.54 106.829 1085.83 103.075 1107.94C101.864 1115.08 100.872 1125.27 100.872 1130.58C100.872 1139.85 105.436 1166.74 107.785 1171.31C108.407 1172.52 109.708 1176.98 110.679 1181.22C111.651 1185.46 113.204 1189.88 114.132 1191.04C115.06 1192.19 116.918 1196.12 118.259 1199.76C122.541 1211.38 132.937 1217.27 146.638 1215.86C151.139 1215.39 155.627 1213.92 157.841 1212.17C159.872 1210.58 162.239 1209.27 163.098 1209.27C164.779 1209.27 170.834 1202.18 173.618 1196.95C174.556 1195.19 178.11 1186.81 181.516 1178.34C185.357 1168.78 189.186 1161.58 191.605 1159.38C194.845 1156.43 207.931 1147.26 217.424 1141.29C218.686 1140.5 226.256 1135.55 234.247 1130.31C252.461 1118.34 262.271 1112.29 271.21 1107.51C275.065 1105.45 281.058 1101.74 284.528 1099.29C287.998 1096.83 294.918 1092.64 299.905 1089.98C304.893 1087.33 310.134 1084.13 311.552 1082.87C312.97 1081.62 321.506 1076.81 330.522 1072.2C363.641 1055.26 394.104 1037.92 421.118 1020.64C423.529 1019.1 427.609 1016.57 430.184 1015.03C439.476 1009.47 451.361 998.297 451.361 995.13C451.361 993.44 451.881 991.736 452.516 991.343C454.617 990.043 503.802 986.512 508.169 987.346C512.831 988.238 517.823 982.957 515.834 979.237C514.261 976.298 511.772 976.053 502.532 977.922ZM561.872 992.921C559.307 995.03 556.786 997.35 556.27 998.078C552.16 1003.88 524.363 1033.8 514.557 1042.98C510.375 1046.89 505.643 1051.59 504.042 1053.41C502.441 1055.24 495.452 1061.32 488.512 1066.92C481.573 1072.53 470.848 1081.97 464.679 1087.91C458.511 1093.85 450.94 1100.78 447.856 1103.31C444.772 1105.84 439.635 1110.37 436.443 1113.36C429.208 1120.15 414.323 1132.27 404.69 1139.21C400.673 1142.1 384.894 1156.68 369.627 1171.61L341.868 1198.75L336.228 1213.48C333.127 1221.58 329.661 1231.21 328.527 1234.89C326.063 1242.87 315.974 1255.76 311.125 1257.11C305.12 1258.78 297.153 1258.43 293.052 1256.31C286.02 1252.67 277.019 1241.21 274.185 1232.29C272.737 1227.73 270.439 1220.52 269.079 1216.28C265.108 1203.89 264.221 1187.26 266.934 1176.05C271.434 1157.44 273.712 1155.21 289.731 1153.72C297.775 1152.97 300.169 1153.25 303.301 1155.3C307.802 1158.25 311.37 1164.59 310.996 1168.97C310.85 1170.7 310.828 1174.45 310.947 1177.31C311.149 1182.11 311.604 1182.64 316.815 1184.2C322.209 1185.82 322.668 1185.71 326.979 1181.72C329.462 1179.43 336.225 1173.82 342.008 1169.27C347.791 1164.72 358.201 1156.22 365.141 1150.38C372.08 1144.54 379.966 1138.14 382.665 1136.14C385.364 1134.15 389.521 1130.7 391.904 1128.47C394.286 1126.24 399.333 1121.93 403.12 1118.89C406.905 1115.84 413.223 1110.16 417.159 1106.27C421.094 1102.37 427.087 1096.62 430.477 1093.49C433.867 1090.36 442.318 1081.95 449.258 1074.8C456.197 1067.65 467.099 1057.02 473.485 1051.18C479.869 1045.33 489.087 1035.13 493.97 1028.49C498.852 1021.86 506.403 1013.14 510.75 1009.11C518.886 1001.57 520.896 996.098 516.972 992.172C513.326 988.524 509.323 990.411 502.39 999.041C498.614 1003.75 493.157 1010.08 490.266 1013.12C487.376 1016.16 483.743 1021.13 482.194 1024.17C480.645 1027.2 474.462 1034.6 468.453 1040.59C439.395 1069.59 404.969 1102.36 391.873 1113.48C351.121 1148.09 326.953 1167.2 323.911 1167.2C323.069 1167.2 322.381 1166.27 322.381 1165.13C322.381 1160.97 315.608 1148.15 311.251 1144.06C306.842 1139.92 306.536 1139.85 292.288 1140C280.091 1140.12 277.038 1140.62 272.943 1143.15C265.237 1147.91 260.741 1155.96 255.017 1175.23C253.785 1179.38 253.517 1186.32 254.126 1198.37C254.859 1212.87 255.861 1218.41 260.507 1233.57C263.587 1243.62 267.318 1252.94 268.965 1254.7C270.584 1256.42 271.911 1258.45 271.911 1259.21C271.911 1260.8 280.77 1269.45 285.892 1272.87C292.297 1277.14 319.089 1274.53 324.748 1269.07C327.359 1266.56 340.225 1240.61 342.827 1232.61C348.745 1214.42 352.063 1208.64 363.879 1195.95C386.313 1171.84 415.315 1144.72 422.929 1140.73C425.054 1139.62 429.325 1136.2 432.419 1133.14C435.512 1130.08 440.312 1126.06 443.086 1124.2C445.862 1122.34 448.965 1119.27 449.983 1117.36C451.002 1115.46 452.332 1113.9 452.939 1113.9C453.546 1113.9 460.801 1107.55 469.06 1099.78C477.319 1092.01 488.191 1082.07 493.222 1077.69C498.252 1073.31 505.242 1066.95 508.758 1063.56C512.273 1060.16 517.617 1055.58 520.634 1053.38C523.65 1051.17 527.1 1047.95 528.301 1046.22C531.412 1041.74 538.419 1033.87 542.277 1030.52C544.09 1028.94 546.929 1026.08 548.586 1024.15C554.254 1017.55 566.447 1005.92 567.686 1005.92C572.373 1005.92 575.363 994.486 571.648 990.77C569.116 988.237 567.005 988.701 561.872 992.921ZM2.38523 1184.58C-0.380823 1186.68 -0.781783 1189.03 1.39545 1190.37C3.44511 1191.64 6.94158 1188.41 6.94158 1185.26C6.94158 1182.18 5.77375 1182 2.38523 1184.58Z" fill="#131414"/>
</svg>



