<svg width="69" height="184" viewBox="0 0 69 184" fill="none" xmlns="http://www.w3.org/2000/svg">
<g clip-path="url(#clip0_82_15445)">
<path fill-rule="evenodd" clip-rule="evenodd" d="M31.754 1.59908C23.689 4.07908 23.596 4.44108 23.584 33.3841C23.573 60.2281 24.439 67.6971 29.481 84.2581C32.861 95.3611 35.151 99.9251 37.678 100.6C40.735 101.415 40.905 102.481 39.389 111.292C38.651 115.577 37.924 128.367 37.774 139.713L37.5 160.344L31.5 161.69C16.704 165.01 4.10099 170.389 1.37599 174.549C0.0419919 176.585 -0.0620068 177.569 0.845993 179.561C2.70899 183.651 6.05299 184.255 23 183.564C56.433 182.199 67 178.827 67 169.52C67 163.833 62.491 161.421 49.891 160.371L41.791 159.695L42.416 137.098C43.268 106.27 43.601 103.53 46.97 99.6611C51.5 94.4591 54.51 87.1721 59.844 68.5001C64.327 52.8031 69.19 22.5241 68.794 12.7641C68.518 5.94808 68.35 5.48008 66 4.96208C64.625 4.65808 61.475 3.42808 59 2.22708C55.362 0.462078 52.777 0.0530756 45.5 0.0920756C40.55 0.118076 34.364 0.796076 31.754 1.59908ZM36.297 3.99308C31.03 5.10408 28 6.69408 28 8.34808C28 10.4091 37.503 14.0001 42.96 14.0001C49.784 14.0001 57.536 12.2001 60.239 9.98808L62.5 8.13708L57.97 6.11908C52.66 3.75308 42.267 2.73408 36.297 3.99308ZM63.082 12.7241C62.804 16.8861 43.122 19.5621 35 16.5431C27.723 13.8381 27.538 13.9071 27.188 19.4381L26.875 24.3761L28.85 21.9381C30.732 19.6151 30.984 19.5691 34.163 20.9591C38.754 22.9671 46.354 22.6761 53.474 20.2201C56.76 19.0861 59.859 18.4131 60.362 18.7241C61.376 19.3501 60.54 34.4591 58.88 45.5001C56.708 59.9481 49.18 83.4351 45.422 87.4901C41.922 91.2661 38.475 90.8091 36.068 86.2501C33.442 81.2761 33.318 84.9011 35.918 90.6271C38.183 95.6141 38.604 95.8981 42.791 95.2611C45.344 94.8731 46.486 93.9481 47.889 91.1311C51.473 83.9331 57.969 62.2551 60.063 50.5001C65.802 18.2841 65.876 17.6821 64.48 14.5001C63.756 12.8501 63.126 12.0511 63.082 12.7241ZM37.045 41.3001C34.283 42.6891 33.168 45.0001 35.262 45.0001C36.783 45.0001 40.624 41.2911 39.877 40.5441C39.633 40.2991 38.359 40.6401 37.045 41.3001ZM28.195 43.5001C28.215 45.1501 28.439 45.7041 28.693 44.7311C28.947 43.7581 28.93 42.4081 28.656 41.7311C28.382 41.0541 28.175 41.8501 28.195 43.5001ZM28.516 53.1631C29.688 63.4451 30.997 71.5261 31.974 74.5001C32.897 77.3141 32.93 77.2521 32.508 73.5001C32.26 71.3001 31.802 66.3501 31.49 62.5001C30.734 53.1751 29.968 49.0981 28.841 48.4011C28.28 48.0551 28.151 49.9561 28.516 53.1631ZM43.179 164.221C42.535 164.865 40.19 165.284 37.968 165.153C35.746 165.022 29.675 166.047 24.478 167.43C10.35 171.19 3.05499 175.453 5.89099 178.292C8.59099 180.996 50.734 178.809 58.504 175.563C62.624 173.841 64.485 170.774 63.043 168.08C61.798 165.755 54.784 163.148 54.231 164.806C54.003 165.492 53.054 165.601 51.683 165.096C46.976 163.364 44.31 163.09 43.179 164.221ZM56.26 169.899C57.114 172.176 57.608 172.67 57.846 171.485C58.036 170.538 57.478 169.05 56.606 168.177C55.157 166.728 55.127 166.878 56.26 169.899Z" fill="black"/>
</g>
<defs>
<clipPath id="clip0_82_15445">
<rect width="69" height="184" fill="white"/>
</clipPath>
</defs>
</svg>
